<svg width="22" height="23" viewBox="0 0 22 23" fill="none" xmlns="http://www.w3.org/2000/svg">
<g clip-path="url(#clip0_458_10194)" filter="url(#filter0_d_458_10194)">
<path d="M16.9367 5.20602C16.9803 4.97219 17.0024 4.73483 17.0027 4.49695C17 2.28764 15.2069 0.498802 12.9976 0.501468C11.3157 0.503489 9.81481 1.55724 9.24159 3.13837C8.21527 2.72982 7.05206 3.23061 6.64348 4.25693C6.60811 4.34577 6.57917 4.43701 6.55687 4.52997C4.9181 4.77506 3.78832 6.30223 4.03341 7.94099C4.25321 9.41073 5.51584 10.4981 7.0019 10.4975H9.50209C9.77827 10.4975 10.0021 10.2736 10.0021 9.99742C10.0021 9.72125 9.77827 9.49737 9.50209 9.49737H7.0019C5.89722 9.49737 5.00172 8.60187 5.00172 7.4972C5.00172 6.39253 5.89722 5.49702 7.0019 5.49702C7.27807 5.49702 7.50195 5.27315 7.50195 4.99697C7.50286 4.44465 7.95134 3.99763 8.50366 3.99854C8.76486 3.99898 9.01555 4.10159 9.20207 4.28442C9.39876 4.47826 9.71536 4.47594 9.90921 4.27926C9.98199 4.2054 10.03 4.11076 10.0466 4.00839C10.3181 2.37545 11.8618 1.27175 13.4948 1.54317C15.1277 1.8146 16.2314 3.35838 15.96 4.99132C15.9438 5.08868 15.9228 5.18519 15.8971 5.28047C15.8396 5.4892 15.923 5.7112 16.1036 5.83051C17.0241 6.44125 17.2752 7.68257 16.6644 8.60304C16.2947 9.16017 15.6712 9.49573 15.0025 9.49731H13.5024C13.2262 9.49731 13.0024 9.72119 13.0024 9.99736C13.0024 10.2735 13.2262 10.4974 13.5024 10.4974H15.0025C16.6595 10.4959 18.0015 9.15132 17.9999 7.49433C17.9991 6.61239 17.6103 5.77546 16.9367 5.20602Z" fill="#F7F7F7"/>
<path d="M14.3446 11.1441C14.1508 10.957 13.8436 10.957 13.6499 11.1441L12.0022 12.7907V5.49712C12.0022 5.22095 11.7783 4.99707 11.5022 4.99707C11.226 4.99707 11.0021 5.22095 11.0021 5.49712V12.7907L9.35548 11.1441C9.15683 10.9522 8.84028 10.9577 8.64843 11.1563C8.46127 11.3501 8.46127 11.6573 8.64843 11.8511L11.1486 14.3513C11.3436 14.5468 11.6603 14.5472 11.8558 14.3522C11.8561 14.3519 11.8564 14.3516 11.8567 14.3513L14.3569 11.8511C14.5488 11.6525 14.5433 11.3359 14.3446 11.1441Z" fill="#F7F7F7"/>
</g>
<defs>
<filter id="filter0_d_458_10194" x="0" y="0.5" width="22" height="22" filterUnits="userSpaceOnUse" color-interpolation-filters="sRGB">
<feFlood flood-opacity="0" result="BackgroundImageFix"/>
<feColorMatrix in="SourceAlpha" type="matrix" values="0 0 0 0 0 0 0 0 0 0 0 0 0 0 0 0 0 0 127 0" result="hardAlpha"/>
<feOffset dy="4"/>
<feGaussianBlur stdDeviation="2"/>
<feComposite in2="hardAlpha" operator="out"/>
<feColorMatrix type="matrix" values="0 0 0 0 0 0 0 0 0 0 0 0 0 0 0 0 0 0 0.25 0"/>
<feBlend mode="normal" in2="BackgroundImageFix" result="effect1_dropShadow_458_10194"/>
<feBlend mode="normal" in="SourceGraphic" in2="effect1_dropShadow_458_10194" result="shape"/>
</filter>
<clipPath id="clip0_458_10194">
<rect width="14" height="14" fill="white" transform="translate(4 0.5)"/>
</clipPath>
</defs>
</svg>
