<svg width="18" height="16" viewBox="0 0 18 16" fill="none" xmlns="http://www.w3.org/2000/svg">
<path d="M16.0112 1.96794C15.1485 1.02134 13.9647 0.5 12.6776 0.5C11.7155 0.5 10.8344 0.807687 10.0588 1.41444C9.6674 1.72071 9.31276 2.09542 9.00008 2.53277C8.68753 2.09555 8.33276 1.72071 7.94125 1.41444C7.16572 0.807687 6.28465 0.5 5.32259 0.5C4.03551 0.5 2.85155 1.02134 1.9888 1.96794C1.13634 2.90348 0.666748 4.18157 0.666748 5.56693C0.666748 6.99281 1.19203 8.29804 2.31978 9.67466C3.32864 10.906 4.77861 12.1561 6.45771 13.6036C7.03106 14.0979 7.68096 14.6582 8.35578 15.2551C8.53405 15.413 8.76281 15.5 9.00008 15.5C9.23723 15.5 9.46611 15.413 9.64413 15.2553C10.319 14.6584 10.9692 14.0978 11.5428 13.6032C13.2217 12.156 14.6716 10.906 15.6805 9.67453C16.8083 8.29804 17.3334 6.99281 17.3334 5.5668C17.3334 4.18157 16.8638 2.90348 16.0112 1.96794Z" fill="url(#paint0_linear_1060_1971)"/>
<defs>
<linearGradient id="paint0_linear_1060_1971" x1="0.666748" y1="7.96032" x2="17.3334" y2="7.96032" gradientUnits="userSpaceOnUse">
<stop stop-color="#FF4F95"/>
<stop offset="0.981846" stop-color="#FF8352"/>
</linearGradient>
</defs>
</svg>
