<svg width="24" height="24" viewBox="0 0 24 24" fill="none" xmlns="http://www.w3.org/2000/svg">
<g clip-path="url(#clip0_194_2168)">
<path fill-rule="evenodd" clip-rule="evenodd" d="M16.0677 9.35575V12.0039C13.69 10.1002 10.3099 10.1002 7.93213 12.0039V9.35575C7.93213 7.78315 9.20698 6.5083 10.7796 6.5083H13.2203C14.7929 6.5083 16.0677 7.78315 16.0677 9.35575Z" fill="#945BA4"/>
<path d="M12.0001 6.50847C13.7974 6.50847 15.2543 5.0515 15.2543 3.25424C15.2543 1.45697 13.7974 0 12.0001 0C10.2028 0 8.74585 1.45697 8.74585 3.25424C8.74585 5.0515 10.2028 6.50847 12.0001 6.50847Z" fill="#FCD6AC"/>
<path fill-rule="evenodd" clip-rule="evenodd" d="M7.93218 9.92554V12.0042C7.4678 12.3756 7.05712 12.8096 6.71184 13.2937C6.42025 13.6962 6.17721 14.1318 5.98777 14.5913C5.65772 15.3811 5.48899 16.2289 5.4915 17.0849C5.4915 17.2232 5.49557 17.3574 5.5037 17.4916H2.64405C1.74634 17.4894 1.01916 16.7622 1.01693 15.8645V15.8442C0.543369 15.7475 0.203271 15.3309 0.203369 14.8476V11.3899C0.203369 9.81734 1.47822 8.54248 3.05082 8.54248H5.4915C6.49196 8.54109 7.41926 9.06656 7.93218 9.92554Z" fill="#FF5364"/>
<path d="M4.27108 8.54217C6.06835 8.54217 7.52532 7.08519 7.52532 5.28793C7.52532 3.49066 6.06835 2.03369 4.27108 2.03369C2.47382 2.03369 1.01685 3.49066 1.01685 5.28793C1.01685 7.08519 2.47382 8.54217 4.27108 8.54217Z" fill="#FCD6AC"/>
<path fill-rule="evenodd" clip-rule="evenodd" d="M23.7967 11.3899V14.8476C23.7968 15.3309 23.4567 15.7475 22.9831 15.8442V15.8645C22.9809 16.7622 22.2537 17.4894 21.356 17.4916H18.4964C18.5045 17.3574 18.5086 17.2232 18.5086 17.0849C18.5111 16.2289 18.3423 15.3811 18.0123 14.5913C17.8228 14.1318 17.5798 13.6962 17.2882 13.2937C16.9418 12.8104 16.5313 12.3766 16.0679 12.0042V9.92554C16.5808 9.06656 17.5081 8.54109 18.5086 8.54248H20.9492C22.5218 8.54248 23.7967 9.81734 23.7967 11.3899Z" fill="#F2D45B"/>
<path d="M19.7289 8.54217C21.5261 8.54217 22.9831 7.08519 22.9831 5.28793C22.9831 3.49066 21.5261 2.03369 19.7289 2.03369C17.9316 2.03369 16.4746 3.49066 16.4746 5.28793C16.4746 7.08519 17.9316 8.54217 19.7289 8.54217Z" fill="#FCD6AC"/>
<path fill-rule="evenodd" clip-rule="evenodd" d="M9.96611 11.7153C9.74145 11.7153 9.55933 11.5332 9.55933 11.3085V9.76274C9.55933 9.53808 9.74145 9.35596 9.96611 9.35596C10.1908 9.35596 10.3729 9.53808 10.3729 9.76274V11.3085C10.3729 11.5332 10.1908 11.7153 9.96611 11.7153Z" fill="#884B9C"/>
<path fill-rule="evenodd" clip-rule="evenodd" d="M14.034 11.7153C13.8093 11.7153 13.6272 11.5332 13.6272 11.3085V9.76274C13.6272 9.53808 13.8093 9.35596 14.034 9.35596C14.2586 9.35596 14.4408 9.53808 14.4408 9.76274V11.3085C14.4408 11.5332 14.2586 11.7153 14.034 11.7153Z" fill="#884B9C"/>
<path fill-rule="evenodd" clip-rule="evenodd" d="M2.64396 11.7964V15.2541C2.64343 15.6318 2.49441 15.9941 2.22905 16.2629C1.96447 16.5246 1.60862 16.6733 1.23651 16.6778C1.09292 16.4307 1.01714 16.15 1.01685 15.8642V15.8439C1.04279 15.8444 1.06865 15.8471 1.09413 15.852C1.29597 15.8904 1.50386 15.8282 1.65142 15.6852C1.76588 15.5709 1.83026 15.4158 1.8304 15.2541V11.7964C1.8304 11.5718 2.01253 11.3896 2.23718 11.3896C2.46184 11.3896 2.64396 11.5718 2.64396 11.7964Z" fill="#DE4D60"/>
<path fill-rule="evenodd" clip-rule="evenodd" d="M6.30498 14.7456C6.08032 14.7456 5.89819 14.5635 5.89819 14.3388V11.7964C5.89819 11.5718 6.08032 11.3896 6.30498 11.3896C6.52964 11.3896 6.71176 11.5718 6.71176 11.7964V14.3388C6.71176 14.5635 6.52964 14.7456 6.30498 14.7456Z" fill="#DE4D60"/>
<path fill-rule="evenodd" clip-rule="evenodd" d="M22.9831 15.8439V15.8642C22.9828 16.15 22.907 16.4307 22.7634 16.6778C21.9819 16.6726 21.3521 16.0356 21.356 15.2541V11.7964C21.356 11.5718 21.5381 11.3896 21.7628 11.3896C21.9874 11.3896 22.1695 11.5718 22.1695 11.7964V15.2541C22.1697 15.4158 22.2341 15.5709 22.3485 15.6852C22.4971 15.8265 22.7041 15.8884 22.9058 15.852C22.9313 15.8473 22.9572 15.8446 22.9831 15.8439Z" fill="#EFC319"/>
<path fill-rule="evenodd" clip-rule="evenodd" d="M17.6949 14.7456C17.4702 14.7456 17.2881 14.5635 17.2881 14.3388V11.7964C17.2881 11.5718 17.4702 11.3896 17.6949 11.3896C17.9195 11.3896 18.1017 11.5718 18.1017 11.7964V14.3388C18.1017 14.5635 17.9195 14.7456 17.6949 14.7456Z" fill="#EFC319"/>
<path fill-rule="evenodd" clip-rule="evenodd" d="M18.5084 17.0847C18.5084 17.223 18.5043 17.3572 18.4962 17.4914C18.2856 20.9248 15.4397 23.6015 11.9999 23.6015C8.5601 23.6015 5.7142 20.9248 5.50366 17.4914C5.49552 17.3572 5.49146 17.223 5.49146 17.0847C5.49146 13.4901 8.4054 10.5762 11.9999 10.5762C15.5944 10.5762 18.5084 13.4901 18.5084 17.0847Z" fill="#4481C2"/>
<path d="M12 23.9999C8.35017 23.9956 5.33036 21.1591 5.09773 17.5167C5.08919 17.3743 5.08472 17.2319 5.08472 17.0847C5.08472 13.2655 8.18078 10.1694 12 10.1694C15.8192 10.1694 18.9152 13.2655 18.9152 17.0847C18.9152 17.2315 18.9107 17.3743 18.9022 17.5167C18.6696 21.1591 15.6498 23.9956 12 23.9999ZM12 10.983C8.6301 10.983 5.89828 13.7148 5.89828 17.0847C5.89828 17.214 5.90194 17.3401 5.90967 17.4662C6.10663 20.6854 8.77481 23.1953 12 23.1953C15.2251 23.1953 17.8933 20.6854 18.0903 17.4662C18.098 17.3401 18.1017 17.214 18.1017 17.0847C18.1017 13.7148 15.3698 10.983 12 10.983Z" fill="#EBEFF0"/>
<path d="M12.0001 21.966C12.4494 21.966 12.8137 21.6018 12.8137 21.1524C12.8137 20.7031 12.4494 20.3389 12.0001 20.3389C11.5508 20.3389 11.1865 20.7031 11.1865 21.1524C11.1865 21.6018 11.5508 21.966 12.0001 21.966Z" fill="white"/>
<path fill-rule="evenodd" clip-rule="evenodd" d="M11.8633 18.701C11.4626 18.6201 11.1774 18.2636 11.1864 17.8548V17.4546C11.2007 16.8701 11.6171 16.3731 12.19 16.2566C12.8313 16.1555 13.2812 15.57 13.2137 14.9243C13.1462 14.2786 12.585 13.7987 11.9366 13.8324C11.2882 13.8662 10.7798 14.4017 10.7797 15.0509C10.7798 15.2901 10.6747 15.5172 10.4923 15.6719C10.3098 15.8265 10.0686 15.8931 9.83268 15.8539C9.4136 15.7698 9.12229 15.3874 9.15255 14.961C9.19885 13.5073 10.3333 12.3221 11.7837 12.2123C13.234 12.1026 14.534 13.1035 14.7985 14.5337C15.0631 15.964 14.2072 17.3637 12.8136 17.78V17.8984C12.8137 18.1381 12.7081 18.3658 12.525 18.5205C12.3418 18.6752 12.0997 18.7412 11.8633 18.701Z" fill="white"/>
</g>
<defs>
<clipPath id="clip0_194_2168">
<rect width="24" height="24" fill="white"/>
</clipPath>
</defs>
</svg>
