<svg width="24" height="24" viewBox="0 0 24 24" fill="none" xmlns="http://www.w3.org/2000/svg">
<path d="M11.9999 23.5999C18.4064 23.5999 23.5999 18.4064 23.5999 11.9999C23.5999 5.5934 18.4064 0.399902 11.9999 0.399902C5.5934 0.399902 0.399902 5.5934 0.399902 11.9999C0.399902 18.4064 5.5934 23.5999 11.9999 23.5999Z" fill="#008ADF"/>
<path d="M12 7.2002C13.1046 7.2002 14 6.30477 14 5.2002C14 4.09563 13.1046 3.2002 12 3.2002C10.8954 3.2002 10 4.09563 10 5.2002C10 6.30477 10.8954 7.2002 12 7.2002Z" fill="white"/>
<path d="M15.2001 18.8002V19.6002C15.2001 19.7063 15.1579 19.808 15.0829 19.8831C15.0079 19.9581 14.9061 20.0002 14.8001 20.0002H9.20005C9.09396 20.0002 8.99222 19.9581 8.91721 19.8831C8.84219 19.808 8.80005 19.7063 8.80005 19.6002V18.8002C8.80143 18.7066 8.83518 18.6164 8.89556 18.5448C8.95593 18.4733 9.03921 18.4249 9.13125 18.4078C9.49042 18.3325 9.81268 18.1357 10.0438 17.8507C10.2749 17.5656 10.4007 17.2096 10.4001 16.8426V12.0002C10.4001 11.6819 10.2736 11.3767 10.0486 11.1517C9.82354 10.9266 9.51831 10.8002 9.20005 10.8002C9.09396 10.8002 8.99222 10.7581 8.91721 10.683C8.84219 10.608 8.80005 10.5063 8.80005 10.4002V9.6002C8.80005 9.49411 8.84219 9.39237 8.91721 9.31735C8.99222 9.24234 9.09396 9.2002 9.20005 9.2002H13.2001C13.3061 9.2002 13.4079 9.24234 13.4829 9.31735C13.5579 9.39237 13.6001 9.49411 13.6001 9.6002V16.8426C13.6 17.2094 13.7259 17.5651 13.9569 17.8501C14.1878 18.1352 14.5096 18.3322 14.8685 18.4082C14.9605 18.4252 15.0438 18.4735 15.1043 18.545C15.1647 18.6164 15.1986 18.7066 15.2001 18.8002Z" fill="white"/>
</svg>
