<svg width="95" height="56" viewBox="0 0 95 56" fill="none" xmlns="http://www.w3.org/2000/svg">
<path d="M35.7498 13.6866V21.4486" stroke="#ABABAB" stroke-width="1.23731" stroke-linecap="round"/>
<path d="M47.4021 13.6866V21.4486" stroke="#ABABAB" stroke-width="1.23731" stroke-linecap="round"/>
<path d="M59.0583 13.6866V21.4486" stroke="#ABABAB" stroke-width="1.23731" stroke-linecap="round"/>
<path d="M41.5762 8.1355V27.0036" stroke="#ABABAB" stroke-width="1.23731" stroke-linecap="round"/>
<path d="M53.2324 8.1355V27.0036" stroke="#ABABAB" stroke-width="1.23731" stroke-linecap="round"/>
<path d="M38.6628 10.51V24.6295" stroke="#ABABAB" stroke-width="1.23731" stroke-linecap="round"/>
<path d="M50.3188 10.51V24.6295" stroke="#ABABAB" stroke-width="1.23731" stroke-linecap="round"/>
<path d="M44.4893 10.51V24.6295" stroke="#ABABAB" stroke-width="1.23731" stroke-linecap="round"/>
<path d="M56.1448 10.51V24.6295" stroke="#ABABAB" stroke-width="1.23731" stroke-linecap="round"/>
<path d="M22.0962 48.152L25.4422 40.088H26.9822V50H25.9742V41.432H25.9462L22.3622 50H21.8302L18.2462 41.432H18.2182V50H17.2102V40.088H18.7502L22.0962 48.152ZM31.7653 48.866L33.7673 43.448H34.8873L31.6113 51.708C31.4153 52.212 31.1633 52.6133 30.8553 52.912C30.5566 53.2107 30.1226 53.36 29.5533 53.36C29.4133 53.36 29.2686 53.3553 29.1193 53.346C28.9793 53.3367 28.8393 53.3087 28.6993 53.262L28.7973 52.366C28.9933 52.4687 29.2266 52.52 29.4973 52.52C29.824 52.52 30.0806 52.4173 30.2673 52.212C30.454 52.0067 30.6173 51.7173 30.7573 51.344L31.2333 50.084L28.5453 43.448H29.7073L31.7653 48.866ZM37.7212 46.472H42.0192L39.8772 41.264L37.7212 46.472ZM36.2512 50H35.0752L39.3872 40.088H40.3672L44.6792 50H43.5032L42.4112 47.396H37.3432L36.2512 50ZM50.4129 50C50.3942 49.8227 50.3802 49.65 50.3709 49.482C50.3709 49.3047 50.3709 49.1273 50.3709 48.95H50.3429C50.2402 49.1273 50.1095 49.2907 49.9509 49.44C49.7922 49.5893 49.6149 49.72 49.4189 49.832C49.2229 49.9347 49.0129 50.014 48.7889 50.07C48.5742 50.1353 48.3595 50.168 48.1449 50.168C47.3049 50.168 46.6842 49.9487 46.2829 49.51C45.8815 49.062 45.6809 48.4273 45.6809 47.606V43.448H46.6049V47.074C46.6049 47.438 46.6329 47.76 46.6889 48.04C46.7449 48.32 46.8382 48.558 46.9689 48.754C47.1089 48.9407 47.2909 49.0853 47.5149 49.188C47.7482 49.2813 48.0375 49.328 48.3829 49.328C48.4295 49.328 48.5602 49.3093 48.7749 49.272C48.9895 49.2347 49.2135 49.132 49.4469 48.964C49.6895 48.796 49.9042 48.544 50.0909 48.208C50.2775 47.872 50.3709 47.4053 50.3709 46.808V43.448H51.2949V48.558C51.2949 48.7353 51.2995 48.9593 51.3089 49.23C51.3275 49.5007 51.3462 49.7573 51.3649 50H50.4129ZM54.0201 46.724C54.0201 47.088 54.0761 47.4287 54.1881 47.746C54.3095 48.0633 54.4775 48.3387 54.6921 48.572C54.9068 48.8053 55.1635 48.992 55.4621 49.132C55.7701 49.2627 56.1155 49.328 56.4981 49.328C56.8715 49.328 57.2168 49.2627 57.5341 49.132C57.8608 48.992 58.1408 48.8053 58.3741 48.572C58.6075 48.3387 58.7895 48.0633 58.9201 47.746C59.0508 47.4287 59.1161 47.088 59.1161 46.724C59.1161 46.36 59.0508 46.0193 58.9201 45.702C58.7895 45.3847 58.6075 45.1093 58.3741 44.876C58.1408 44.6427 57.8608 44.4607 57.5341 44.33C57.2168 44.19 56.8715 44.12 56.4981 44.12C56.1155 44.12 55.7701 44.19 55.4621 44.33C55.1635 44.4607 54.9068 44.6427 54.6921 44.876C54.4775 45.1093 54.3095 45.3847 54.1881 45.702C54.0761 46.0193 54.0201 46.36 54.0201 46.724ZM59.9981 50H59.0741V48.908H59.0461C58.8968 49.132 58.7195 49.3233 58.5141 49.482C58.3088 49.6407 58.0941 49.7713 57.8701 49.874C57.6461 49.9767 57.4128 50.0513 57.1701 50.098C56.9368 50.1447 56.7128 50.168 56.4981 50.168C55.9848 50.168 55.5135 50.084 55.0841 49.916C54.6641 49.7387 54.3001 49.496 53.9921 49.188C53.6841 48.88 53.4415 48.516 53.2641 48.096C53.0961 47.676 53.0121 47.2187 53.0121 46.724C53.0121 46.2293 53.0961 45.772 53.2641 45.352C53.4415 44.932 53.6841 44.568 53.9921 44.26C54.3001 43.952 54.6641 43.714 55.0841 43.546C55.5135 43.3687 55.9848 43.28 56.4981 43.28C56.7128 43.28 56.9368 43.3033 57.1701 43.35C57.4128 43.3967 57.6461 43.4713 57.8701 43.574C58.0941 43.6767 58.3088 43.8073 58.5141 43.966C58.7195 44.1247 58.8968 44.316 59.0461 44.54H59.0741V39.416H59.9981V50ZM63.3627 40.928C63.3627 41.124 63.2927 41.2873 63.1527 41.418C63.0127 41.5393 62.8587 41.6 62.6907 41.6C62.5227 41.6 62.3687 41.5393 62.2287 41.418C62.0887 41.2873 62.0187 41.124 62.0187 40.928C62.0187 40.732 62.0887 40.5733 62.2287 40.452C62.3687 40.3213 62.5227 40.256 62.6907 40.256C62.8587 40.256 63.0127 40.3213 63.1527 40.452C63.2927 40.5733 63.3627 40.732 63.3627 40.928ZM63.1527 50H62.2287V43.448H63.1527V50ZM70.996 46.724C70.996 46.36 70.9354 46.0193 70.814 45.702C70.702 45.3847 70.5387 45.1093 70.324 44.876C70.1094 44.6427 69.848 44.4607 69.54 44.33C69.2414 44.19 68.9007 44.12 68.518 44.12C68.1354 44.12 67.79 44.19 67.482 44.33C67.1834 44.4607 66.9267 44.6427 66.712 44.876C66.5067 45.1093 66.3434 45.3847 66.222 45.702C66.11 46.0193 66.054 46.36 66.054 46.724C66.054 47.088 66.11 47.4287 66.222 47.746C66.3434 48.0633 66.5067 48.3387 66.712 48.572C66.9267 48.8053 67.1834 48.992 67.482 49.132C67.79 49.2627 68.1354 49.328 68.518 49.328C68.9007 49.328 69.2414 49.2627 69.54 49.132C69.848 48.992 70.1094 48.8053 70.324 48.572C70.5387 48.3387 70.702 48.0633 70.814 47.746C70.9354 47.4287 70.996 47.088 70.996 46.724ZM72.004 46.724C72.004 47.2187 71.9154 47.676 71.738 48.096C71.57 48.516 71.332 48.88 71.024 49.188C70.716 49.496 70.3474 49.7387 69.918 49.916C69.498 50.084 69.0314 50.168 68.518 50.168C68.014 50.168 67.5474 50.084 67.118 49.916C66.698 49.7387 66.334 49.496 66.026 49.188C65.718 48.88 65.4754 48.516 65.298 48.096C65.13 47.676 65.046 47.2187 65.046 46.724C65.046 46.2293 65.13 45.772 65.298 45.352C65.4754 44.932 65.718 44.568 66.026 44.26C66.334 43.952 66.698 43.714 67.118 43.546C67.5474 43.3687 68.014 43.28 68.518 43.28C69.0314 43.28 69.498 43.3687 69.918 43.546C70.3474 43.714 70.716 43.952 71.024 44.26C71.332 44.568 71.57 44.932 71.738 45.352C71.9154 45.772 72.004 46.2293 72.004 46.724ZM77.1529 45.002C77.0129 44.7313 76.8262 44.5167 76.5929 44.358C76.3595 44.1993 76.0749 44.12 75.7389 44.12C75.5802 44.12 75.4169 44.1387 75.2489 44.176C75.0902 44.2133 74.9455 44.274 74.8149 44.358C74.6842 44.4327 74.5769 44.5307 74.4929 44.652C74.4182 44.7733 74.3809 44.9227 74.3809 45.1C74.3809 45.408 74.4882 45.632 74.7029 45.772C74.9175 45.912 75.2395 46.0333 75.6689 46.136L76.6069 46.36C77.0642 46.4627 77.4422 46.6727 77.7409 46.99C78.0489 47.298 78.2029 47.6853 78.2029 48.152C78.2029 48.5067 78.1282 48.8147 77.9789 49.076C77.8389 49.328 77.6475 49.538 77.4049 49.706C77.1715 49.8647 76.9009 49.9813 76.5929 50.056C76.2849 50.1307 75.9722 50.168 75.6549 50.168C75.1509 50.168 74.6795 50.0747 74.2409 49.888C73.8115 49.692 73.4429 49.3607 73.1349 48.894L73.9329 48.348C74.1195 48.6467 74.3529 48.8847 74.6329 49.062C74.9222 49.2393 75.2629 49.328 75.6549 49.328C75.8415 49.328 76.0282 49.3093 76.2149 49.272C76.4015 49.2253 76.5649 49.16 76.7049 49.076C76.8542 48.9827 76.9709 48.866 77.0549 48.726C77.1482 48.586 77.1949 48.4227 77.1949 48.236C77.1949 47.9093 77.0735 47.676 76.8309 47.536C76.5882 47.3867 76.2942 47.27 75.9489 47.186L75.0529 46.976C74.9409 46.948 74.7869 46.9013 74.5909 46.836C74.4042 46.7707 74.2175 46.6727 74.0309 46.542C73.8535 46.4113 73.6995 46.2433 73.5689 46.038C73.4382 45.8233 73.3729 45.562 73.3729 45.254C73.3729 44.918 73.4382 44.624 73.5689 44.372C73.7089 44.12 73.8909 43.9147 74.1149 43.756C74.3482 43.5973 74.6095 43.4807 74.8989 43.406C75.1882 43.322 75.4869 43.28 75.7949 43.28C76.2522 43.28 76.6769 43.3687 77.0689 43.546C77.4609 43.7233 77.7642 44.0267 77.9789 44.456L77.1529 45.002Z" fill="#ABABAB"/>
</svg>
