<svg width="94" height="56" viewBox="0 0 94 56" fill="none" xmlns="http://www.w3.org/2000/svg">
<path d="M42.0011 20.2027C42.6706 20.2027 43.2102 19.6596 43.2102 18.9935C43.2102 18.3275 42.6671 17.7844 42.0011 17.7844C41.3316 17.7844 40.792 18.3275 40.792 18.9935C40.792 19.6596 41.3316 20.2027 42.0011 20.2027Z" fill="#ABABAB"/>
<path d="M46.2396 20.2027C46.9091 20.2027 47.4488 19.6596 47.4488 18.9935C47.4488 18.3275 46.9057 17.7844 46.2396 17.7844C45.5702 17.7844 45.0305 18.3275 45.0305 18.9935C45.0305 19.6596 45.5736 20.2027 46.2396 20.2027Z" fill="#ABABAB"/>
<path d="M50.4818 20.2027C51.1513 20.2027 51.691 19.6596 51.691 18.9935C51.691 18.3275 51.1479 17.7844 50.4818 17.7844C49.8124 17.7844 49.2727 18.3275 49.2727 18.9935C49.2727 19.6596 49.8124 20.2027 50.4818 20.2027Z" fill="#ABABAB"/>
<path d="M46.25 28.3933C51.4377 28.3933 55.6432 24.1878 55.6432 19.0001C55.6432 13.8123 51.4377 9.60681 46.25 9.60681C41.0622 9.60681 36.8567 13.8123 36.8567 19.0001C36.8567 24.1878 41.0622 28.3933 46.25 28.3933Z" stroke="#ABABAB" stroke-width="1.11617"/>
<path d="M36.5122 48.152L39.8582 40.088H41.3982V50H40.3902V41.432H40.3622L36.7782 50H36.2462L32.6622 41.432H32.6342V50H31.6262V40.088H33.1662L36.5122 48.152ZM49.3593 46.724C49.3593 46.36 49.2986 46.0193 49.1773 45.702C49.0653 45.3847 48.902 45.1093 48.6873 44.876C48.4726 44.6427 48.2113 44.4607 47.9033 44.33C47.6046 44.19 47.264 44.12 46.8813 44.12C46.4986 44.12 46.1533 44.19 45.8453 44.33C45.5466 44.4607 45.29 44.6427 45.0753 44.876C44.87 45.1093 44.7066 45.3847 44.5853 45.702C44.4733 46.0193 44.4173 46.36 44.4173 46.724C44.4173 47.088 44.4733 47.4287 44.5853 47.746C44.7066 48.0633 44.87 48.3387 45.0753 48.572C45.29 48.8053 45.5466 48.992 45.8453 49.132C46.1533 49.2627 46.4986 49.328 46.8813 49.328C47.264 49.328 47.6046 49.2627 47.9033 49.132C48.2113 48.992 48.4726 48.8053 48.6873 48.572C48.902 48.3387 49.0653 48.0633 49.1773 47.746C49.2986 47.4287 49.3593 47.088 49.3593 46.724ZM50.3673 46.724C50.3673 47.2187 50.2786 47.676 50.1013 48.096C49.9333 48.516 49.6953 48.88 49.3873 49.188C49.0793 49.496 48.7106 49.7387 48.2813 49.916C47.8613 50.084 47.3946 50.168 46.8813 50.168C46.3773 50.168 45.9106 50.084 45.4813 49.916C45.0613 49.7387 44.6973 49.496 44.3893 49.188C44.0813 48.88 43.8386 48.516 43.6613 48.096C43.4933 47.676 43.4093 47.2187 43.4093 46.724C43.4093 46.2293 43.4933 45.772 43.6613 45.352C43.8386 44.932 44.0813 44.568 44.3893 44.26C44.6973 43.952 45.0613 43.714 45.4813 43.546C45.9106 43.3687 46.3773 43.28 46.8813 43.28C47.3946 43.28 47.8613 43.3687 48.2813 43.546C48.7106 43.714 49.0793 43.952 49.3873 44.26C49.6953 44.568 49.9333 44.932 50.1013 45.352C50.2786 45.772 50.3673 46.2293 50.3673 46.724ZM52.1421 45.492C52.1421 45.2027 52.1328 44.9087 52.1141 44.61C52.1048 44.3113 52.0955 43.924 52.0861 43.448H52.9961V44.666H53.0241C53.0895 44.4887 53.1828 44.3207 53.3041 44.162C53.4255 43.994 53.5701 43.8447 53.7381 43.714C53.9155 43.5833 54.1161 43.4807 54.3401 43.406C54.5735 43.322 54.8348 43.28 55.1241 43.28C55.3855 43.28 55.6141 43.308 55.8101 43.364L55.6281 44.274C55.5068 44.2273 55.3295 44.204 55.0961 44.204C54.7415 44.204 54.4381 44.274 54.1861 44.414C53.9341 44.5447 53.7241 44.7173 53.5561 44.932C53.3881 45.1373 53.2621 45.3613 53.1781 45.604C53.1035 45.8467 53.0661 46.08 53.0661 46.304V50H52.1421V45.492ZM61.5425 46.22C61.5425 45.5947 61.3558 45.0907 60.9825 44.708C60.6091 44.316 60.0865 44.12 59.4145 44.12C59.1158 44.12 58.8265 44.1807 58.5465 44.302C58.2665 44.414 58.0191 44.568 57.8045 44.764C57.5991 44.96 57.4311 45.184 57.3005 45.436C57.1791 45.688 57.1185 45.9493 57.1185 46.22H61.5425ZM57.0905 46.976C57.1185 47.3027 57.1978 47.6107 57.3285 47.9C57.4591 48.1893 57.6318 48.4413 57.8465 48.656C58.0611 48.8613 58.3085 49.0247 58.5885 49.146C58.8685 49.2673 59.1718 49.328 59.4985 49.328C59.9931 49.328 60.4178 49.216 60.7725 48.992C61.1365 48.7587 61.4118 48.4927 61.5985 48.194L62.3125 48.782C61.9205 49.2767 61.4865 49.6313 61.0105 49.846C60.5438 50.0607 60.0398 50.168 59.4985 50.168C59.0131 50.168 58.5605 50.084 58.1405 49.916C57.7298 49.7387 57.3751 49.496 57.0765 49.188C56.7778 48.88 56.5398 48.516 56.3625 48.096C56.1945 47.676 56.1105 47.2187 56.1105 46.724C56.1105 46.2293 56.1945 45.772 56.3625 45.352C56.5305 44.932 56.7638 44.568 57.0625 44.26C57.3611 43.952 57.7111 43.714 58.1125 43.546C58.5138 43.3687 58.9478 43.28 59.4145 43.28C59.9091 43.28 60.3525 43.3687 60.7445 43.546C61.1365 43.7233 61.4631 43.9613 61.7245 44.26C61.9951 44.5493 62.2005 44.8947 62.3405 45.296C62.4805 45.688 62.5505 46.108 62.5505 46.556V46.976H57.0905Z" fill="#ABABAB"/>
</svg>
