<svg width="23" height="22" viewBox="0 0 23 22" fill="none" xmlns="http://www.w3.org/2000/svg">
<path d="M7.0011 12.2029C7.67056 12.2029 8.21022 11.6598 8.21022 10.9938C8.21022 10.3278 7.66714 9.78467 7.0011 9.78467C6.33165 9.78467 5.79199 10.3278 5.79199 10.9938C5.79199 11.6598 6.33165 12.2029 7.0011 12.2029Z" fill="#FFAC00"/>
<path d="M11.2396 12.2029C11.9091 12.2029 12.4488 11.6598 12.4488 10.9938C12.4488 10.3278 11.9057 9.78467 11.2396 9.78467C10.5702 9.78467 10.0305 10.3278 10.0305 10.9938C10.0305 11.6598 10.5736 12.2029 11.2396 12.2029Z" fill="#FFAC00"/>
<path d="M15.4818 12.2029C16.1513 12.2029 16.691 11.6598 16.691 10.9938C16.691 10.3278 16.1479 9.78467 15.4818 9.78467C14.8124 9.78467 14.2727 10.3278 14.2727 10.9938C14.2727 11.6598 14.8124 12.2029 15.4818 12.2029Z" fill="#FFAC00"/>
<path d="M11.25 20.3935C16.4377 20.3935 20.6432 16.188 20.6432 11.0002C20.6432 5.81244 16.4377 1.60693 11.25 1.60693C6.0622 1.60693 1.85669 5.81244 1.85669 11.0002C1.85669 16.188 6.0622 20.3935 11.25 20.3935Z" stroke="#FFAC00" stroke-width="1.11617"/>
</svg>
