<svg width="95" height="56" viewBox="0 0 95 56" fill="none" xmlns="http://www.w3.org/2000/svg">
<path d="M42.4463 27.9998H53.6681" stroke="#ABABAB" stroke-width="1.19342" stroke-linecap="round"/>
<path d="M42.4463 25.7795H53.6681" stroke="#ABABAB" stroke-width="1.19342" stroke-linecap="round"/>
<path d="M53.6675 23.4359V8.72791H42.2867V8.73515C41.1005 8.81832 40.1638 9.80198 40.1638 11.0099C40.1638 11.0496 40.1674 11.0894 40.1674 11.1292H40.1638V25.2803L40.2181 25.0561C40.5002 24.1013 40.9847 23.7144 42.1095 23.4214L42.2867 23.4178V23.4323H53.6675V23.4359Z" stroke="#ABABAB" stroke-width="1.19342" stroke-linecap="round" stroke-linejoin="round"/>
<path d="M42.446 23.4142C41.1838 23.4142 40.1604 24.4376 40.1604 25.6998C40.1604 26.9619 41.1838 27.9853 42.446 27.9853" stroke="#ABABAB" stroke-width="1.19342"/>
<path d="M43.144 8.69922V23.4578" stroke="#ABABAB" stroke-width="1.19342"/>
<path d="M31.383 48.432C31.215 48.684 31.005 48.922 30.753 49.146C30.5103 49.37 30.2303 49.566 29.913 49.734C29.5956 49.8927 29.2503 50.0187 28.877 50.112C28.513 50.2053 28.1256 50.252 27.715 50.252C26.9776 50.252 26.2916 50.1213 25.657 49.86C25.0316 49.5987 24.4856 49.2393 24.019 48.782C23.5616 48.3153 23.2023 47.7647 22.941 47.13C22.6796 46.4953 22.549 45.8 22.549 45.044C22.549 44.288 22.6796 43.5927 22.941 42.958C23.2023 42.3233 23.5616 41.7773 24.019 41.32C24.4856 40.8533 25.0316 40.4893 25.657 40.228C26.2916 39.9667 26.9776 39.836 27.715 39.836C28.331 39.836 28.947 39.9573 29.563 40.2C30.179 40.4427 30.7063 40.844 31.145 41.404L30.263 42.062C30.1603 41.9033 30.0203 41.7447 29.843 41.586C29.6656 41.4273 29.4603 41.2873 29.227 41.166C29.003 41.0447 28.7603 40.9467 28.499 40.872C28.2376 40.7973 27.9763 40.76 27.715 40.76C27.0803 40.76 26.511 40.8767 26.007 41.11C25.503 41.3433 25.0736 41.656 24.719 42.048C24.3736 42.44 24.1076 42.8973 23.921 43.42C23.7343 43.9333 23.641 44.4747 23.641 45.044C23.641 45.6133 23.7343 46.1593 23.921 46.682C24.1076 47.1953 24.3736 47.648 24.719 48.04C25.0736 48.432 25.503 48.7447 26.007 48.978C26.511 49.2113 27.0803 49.328 27.715 49.328C27.9763 49.328 28.233 49.3047 28.485 49.258C28.7463 49.2113 28.9983 49.132 29.241 49.02C29.493 48.908 29.7263 48.7587 29.941 48.572C30.165 48.376 30.3703 48.1333 30.557 47.844L31.383 48.432ZM36.4664 46.738C36.233 46.738 35.939 46.752 35.5844 46.78C35.239 46.7987 34.903 46.8547 34.5764 46.948C34.259 47.032 33.9837 47.1673 33.7504 47.354C33.5264 47.5407 33.4144 47.7973 33.4144 48.124C33.4144 48.3387 33.4564 48.5253 33.5404 48.684C33.6337 48.8333 33.755 48.9593 33.9044 49.062C34.0537 49.1553 34.217 49.2253 34.3944 49.272C34.581 49.3093 34.7677 49.328 34.9544 49.328C35.2904 49.328 35.5797 49.272 35.8224 49.16C36.0744 49.048 36.2844 48.8987 36.4524 48.712C36.6204 48.516 36.7417 48.292 36.8164 48.04C36.9004 47.7787 36.9424 47.5033 36.9424 47.214V46.738H36.4664ZM36.9424 45.982V45.814C36.9424 44.6847 36.3824 44.12 35.2624 44.12C34.497 44.12 33.8297 44.3767 33.2604 44.89L32.7004 44.232C33.3164 43.5973 34.2404 43.28 35.4724 43.28C35.7897 43.28 36.093 43.3267 36.3824 43.42C36.681 43.5133 36.9377 43.658 37.1524 43.854C37.367 44.0407 37.5397 44.2787 37.6704 44.568C37.801 44.8573 37.8664 45.2027 37.8664 45.604V48.53C37.8664 48.782 37.8757 49.048 37.8944 49.328C37.9224 49.5987 37.9504 49.8227 37.9784 50H37.0824C37.0544 49.8413 37.031 49.6687 37.0124 49.482C37.003 49.2953 36.9984 49.1133 36.9984 48.936H36.9704C36.6997 49.3747 36.3777 49.692 36.0044 49.888C35.6404 50.0747 35.1924 50.168 34.6604 50.168C34.371 50.168 34.091 50.126 33.8204 50.042C33.5497 49.9673 33.307 49.8507 33.0924 49.692C32.887 49.524 32.719 49.3233 32.5884 49.09C32.467 48.8473 32.4064 48.5673 32.4064 48.25C32.4064 47.718 32.5417 47.3027 32.8124 47.004C33.0924 46.696 33.4377 46.4673 33.8484 46.318C34.2684 46.1687 34.7117 46.0753 35.1784 46.038C35.6544 46.0007 36.0884 45.982 36.4804 45.982H36.9424ZM43.3901 44.288H41.5001V48.152C41.5001 48.3947 41.5235 48.5953 41.5701 48.754C41.6168 48.9033 41.6821 49.02 41.7661 49.104C41.8501 49.188 41.9481 49.2487 42.0601 49.286C42.1815 49.314 42.3121 49.328 42.4521 49.328C42.6108 49.328 42.7741 49.3047 42.9421 49.258C43.1101 49.2113 43.2641 49.1507 43.4041 49.076L43.4461 49.93C43.1008 50.0887 42.6855 50.168 42.2001 50.168C42.0228 50.168 41.8361 50.1447 41.6401 50.098C41.4535 50.0513 41.2808 49.9627 41.1221 49.832C40.9635 49.7013 40.8328 49.524 40.7301 49.3C40.6275 49.076 40.5761 48.782 40.5761 48.418V44.288H39.1901V43.448H40.5761V41.6H41.5001V43.448H43.3901V44.288ZM48.3746 46.738C48.1412 46.738 47.8472 46.752 47.4926 46.78C47.1472 46.7987 46.8112 46.8547 46.4846 46.948C46.1672 47.032 45.8919 47.1673 45.6586 47.354C45.4346 47.5407 45.3226 47.7973 45.3226 48.124C45.3226 48.3387 45.3646 48.5253 45.4486 48.684C45.5419 48.8333 45.6632 48.9593 45.8126 49.062C45.9619 49.1553 46.1252 49.2253 46.3026 49.272C46.4892 49.3093 46.6759 49.328 46.8626 49.328C47.1986 49.328 47.4879 49.272 47.7306 49.16C47.9826 49.048 48.1926 48.8987 48.3606 48.712C48.5286 48.516 48.6499 48.292 48.7246 48.04C48.8086 47.7787 48.8506 47.5033 48.8506 47.214V46.738H48.3746ZM48.8506 45.982V45.814C48.8506 44.6847 48.2906 44.12 47.1706 44.12C46.4052 44.12 45.7379 44.3767 45.1686 44.89L44.6086 44.232C45.2246 43.5973 46.1486 43.28 47.3806 43.28C47.6979 43.28 48.0012 43.3267 48.2906 43.42C48.5892 43.5133 48.8459 43.658 49.0606 43.854C49.2752 44.0407 49.4479 44.2787 49.5786 44.568C49.7092 44.8573 49.7746 45.2027 49.7746 45.604V48.53C49.7746 48.782 49.7839 49.048 49.8026 49.328C49.8306 49.5987 49.8586 49.8227 49.8866 50H48.9906C48.9626 49.8413 48.9392 49.6687 48.9206 49.482C48.9112 49.2953 48.9066 49.1133 48.9066 48.936H48.8786C48.6079 49.3747 48.2859 49.692 47.9126 49.888C47.5486 50.0747 47.1006 50.168 46.5686 50.168C46.2792 50.168 45.9992 50.126 45.7286 50.042C45.4579 49.9673 45.2152 49.8507 45.0006 49.692C44.7952 49.524 44.6272 49.3233 44.4966 49.09C44.3752 48.8473 44.3146 48.5673 44.3146 48.25C44.3146 47.718 44.4499 47.3027 44.7206 47.004C45.0006 46.696 45.3459 46.4673 45.7566 46.318C46.1766 46.1687 46.6199 46.0753 47.0866 46.038C47.5626 46.0007 47.9966 45.982 48.3886 45.982H48.8506ZM53.0443 50H52.1203V39.416H53.0443V50ZM60.8876 46.724C60.8876 46.36 60.827 46.0193 60.7056 45.702C60.5936 45.3847 60.4303 45.1093 60.2156 44.876C60.001 44.6427 59.7396 44.4607 59.4316 44.33C59.133 44.19 58.7923 44.12 58.4096 44.12C58.027 44.12 57.6816 44.19 57.3736 44.33C57.075 44.4607 56.8183 44.6427 56.6036 44.876C56.3983 45.1093 56.235 45.3847 56.1136 45.702C56.0016 46.0193 55.9456 46.36 55.9456 46.724C55.9456 47.088 56.0016 47.4287 56.1136 47.746C56.235 48.0633 56.3983 48.3387 56.6036 48.572C56.8183 48.8053 57.075 48.992 57.3736 49.132C57.6816 49.2627 58.027 49.328 58.4096 49.328C58.7923 49.328 59.133 49.2627 59.4316 49.132C59.7396 48.992 60.001 48.8053 60.2156 48.572C60.4303 48.3387 60.5936 48.0633 60.7056 47.746C60.827 47.4287 60.8876 47.088 60.8876 46.724ZM61.8956 46.724C61.8956 47.2187 61.807 47.676 61.6296 48.096C61.4616 48.516 61.2236 48.88 60.9156 49.188C60.6076 49.496 60.239 49.7387 59.8096 49.916C59.3896 50.084 58.923 50.168 58.4096 50.168C57.9056 50.168 57.439 50.084 57.0096 49.916C56.5896 49.7387 56.2256 49.496 55.9176 49.188C55.6096 48.88 55.367 48.516 55.1896 48.096C55.0216 47.676 54.9376 47.2187 54.9376 46.724C54.9376 46.2293 55.0216 45.772 55.1896 45.352C55.367 44.932 55.6096 44.568 55.9176 44.26C56.2256 43.952 56.5896 43.714 57.0096 43.546C57.439 43.3687 57.9056 43.28 58.4096 43.28C58.923 43.28 59.3896 43.3687 59.8096 43.546C60.239 43.714 60.6076 43.952 60.9156 44.26C61.2236 44.568 61.4616 44.932 61.6296 45.352C61.807 45.772 61.8956 46.2293 61.8956 46.724ZM64.2445 46.64C64.2445 46.9853 64.3051 47.312 64.4265 47.62C64.5571 47.9187 64.7298 48.1847 64.9445 48.418C65.1685 48.642 65.4251 48.824 65.7145 48.964C66.0131 49.0947 66.3351 49.16 66.6805 49.16C67.0165 49.16 67.3338 49.0993 67.6325 48.978C67.9405 48.8567 68.2111 48.6887 68.4445 48.474C68.6778 48.25 68.8551 47.984 68.9765 47.676C69.1071 47.368 69.1678 47.0227 69.1585 46.64C69.1585 46.2947 69.1025 45.9727 68.9905 45.674C68.8785 45.366 68.7151 45.1 68.5005 44.876C68.2858 44.6427 68.0245 44.4607 67.7165 44.33C67.4085 44.19 67.0631 44.12 66.6805 44.12C66.3351 44.12 66.0131 44.19 65.7145 44.33C65.4251 44.4607 65.1685 44.6427 64.9445 44.876C64.7298 45.1 64.5571 45.366 64.4265 45.674C64.3051 45.9727 64.2445 46.2947 64.2445 46.64ZM64.0765 51.316C64.3471 51.68 64.6971 51.9693 65.1265 52.184C65.5651 52.408 66.0505 52.52 66.5825 52.52C67.0491 52.52 67.4458 52.45 67.7725 52.31C68.0991 52.1793 68.3605 51.9973 68.5565 51.764C68.7618 51.5307 68.9065 51.2553 68.9905 50.938C69.0838 50.63 69.1305 50.2987 69.1305 49.944V48.768H69.1025C68.8038 49.216 68.4398 49.5333 68.0105 49.72C67.5811 49.9067 67.1285 50 66.6525 50C66.1765 50 65.7285 49.916 65.3085 49.748C64.8978 49.58 64.5385 49.3513 64.2305 49.062C63.9225 48.7633 63.6798 48.4087 63.5025 47.998C63.3251 47.5873 63.2365 47.144 63.2365 46.668C63.2365 46.192 63.3205 45.7487 63.4885 45.338C63.6565 44.9273 63.8851 44.568 64.1745 44.26C64.4731 43.952 64.8231 43.714 65.2245 43.546C65.6351 43.3687 66.0831 43.28 66.5685 43.28C66.7645 43.28 66.9698 43.2987 67.1845 43.336C67.4085 43.3733 67.6278 43.4387 67.8425 43.532C68.0665 43.6253 68.2858 43.756 68.5005 43.924C68.7151 44.0827 68.9158 44.288 69.1025 44.54H69.1305V43.448H70.0545V49.944C70.0545 50.2987 70.0078 50.6767 69.9145 51.078C69.8305 51.4793 69.6578 51.848 69.3965 52.184C69.1445 52.52 68.7898 52.8 68.3325 53.024C67.8751 53.248 67.2778 53.36 66.5405 53.36C65.8871 53.36 65.3038 53.2527 64.7905 53.038C64.2771 52.8233 63.8105 52.492 63.3905 52.044L64.0765 51.316Z" fill="#ABABAB"/>
</svg>
