<svg width="94" height="56" viewBox="0 0 94 56" fill="none" xmlns="http://www.w3.org/2000/svg">
<path d="M37.787 29.4003V15.7961L47.5464 8L57.3018 16.0625L57.2198 29.5191L37 29.515" stroke="#FFAC00" stroke-width="1.35263"/>
<path d="M42.4719 22.8789C43.595 24.4529 45.4354 25.4776 47.5177 25.4776C49.5712 25.4776 51.3911 24.4775 52.5183 22.9404" stroke="#FFAC00" stroke-width="1.36616" stroke-linecap="round"/>
<path d="M28.7922 40.088H29.8002V44.386H35.2042V40.088H36.2122V50H35.2042V45.31H29.8002V50H28.7922V40.088ZM44.1738 46.724C44.1738 46.36 44.1131 46.0193 43.9918 45.702C43.8798 45.3847 43.7164 45.1093 43.5018 44.876C43.2871 44.6427 43.0258 44.4607 42.7178 44.33C42.4191 44.19 42.0784 44.12 41.6958 44.12C41.3131 44.12 40.9678 44.19 40.6598 44.33C40.3611 44.4607 40.1044 44.6427 39.8898 44.876C39.6844 45.1093 39.5211 45.3847 39.3998 45.702C39.2878 46.0193 39.2318 46.36 39.2318 46.724C39.2318 47.088 39.2878 47.4287 39.3998 47.746C39.5211 48.0633 39.6844 48.3387 39.8898 48.572C40.1044 48.8053 40.3611 48.992 40.6598 49.132C40.9678 49.2627 41.3131 49.328 41.6958 49.328C42.0784 49.328 42.4191 49.2627 42.7178 49.132C43.0258 48.992 43.2871 48.8053 43.5018 48.572C43.7164 48.3387 43.8798 48.0633 43.9918 47.746C44.1131 47.4287 44.1738 47.088 44.1738 46.724ZM45.1818 46.724C45.1818 47.2187 45.0931 47.676 44.9158 48.096C44.7478 48.516 44.5098 48.88 44.2018 49.188C43.8938 49.496 43.5251 49.7387 43.0958 49.916C42.6758 50.084 42.2091 50.168 41.6958 50.168C41.1918 50.168 40.7251 50.084 40.2958 49.916C39.8758 49.7387 39.5118 49.496 39.2038 49.188C38.8958 48.88 38.6531 48.516 38.4758 48.096C38.3078 47.676 38.2238 47.2187 38.2238 46.724C38.2238 46.2293 38.3078 45.772 38.4758 45.352C38.6531 44.932 38.8958 44.568 39.2038 44.26C39.5118 43.952 39.8758 43.714 40.2958 43.546C40.7251 43.3687 41.1918 43.28 41.6958 43.28C42.2091 43.28 42.6758 43.3687 43.0958 43.546C43.5251 43.714 43.8938 43.952 44.2018 44.26C44.5098 44.568 44.7478 44.932 44.9158 45.352C45.0931 45.772 45.1818 46.2293 45.1818 46.724ZM46.8586 44.904C46.8586 44.6613 46.8493 44.4187 46.8306 44.176C46.8213 43.9333 46.8073 43.6907 46.7886 43.448H47.7826V44.442H47.8106C48.0346 44.0593 48.3426 43.77 48.7346 43.574C49.1359 43.378 49.5326 43.28 49.9246 43.28C50.1019 43.28 50.2886 43.2987 50.4846 43.336C50.6899 43.3733 50.8859 43.4433 51.0726 43.546C51.2593 43.6393 51.4319 43.7747 51.5906 43.952C51.7586 44.1293 51.8986 44.358 52.0106 44.638C52.1973 44.218 52.4913 43.8867 52.8926 43.644C53.3033 43.4013 53.7279 43.28 54.1666 43.28C55.0066 43.28 55.6273 43.504 56.0286 43.952C56.4299 44.3907 56.6306 45.0207 56.6306 45.842V50H55.7066V46.178C55.7066 45.5153 55.5899 45.0067 55.3566 44.652C55.1233 44.2973 54.6893 44.12 54.0546 44.12C53.7093 44.12 53.4199 44.19 53.1866 44.33C52.9533 44.4607 52.7619 44.638 52.6126 44.862C52.4726 45.086 52.3699 45.3427 52.3046 45.632C52.2393 45.912 52.2066 46.206 52.2066 46.514V50H51.2826V46.178C51.2826 45.5153 51.1659 45.0067 50.9326 44.652C50.6993 44.2973 50.2653 44.12 49.6306 44.12C49.5746 44.12 49.4439 44.1387 49.2386 44.176C49.0426 44.2133 48.8373 44.316 48.6226 44.484C48.4079 44.652 48.2119 44.904 48.0346 45.24C47.8666 45.576 47.7826 46.0427 47.7826 46.64V50H46.8586V44.904ZM63.8765 46.22C63.8765 45.5947 63.6898 45.0907 63.3165 44.708C62.9431 44.316 62.4205 44.12 61.7485 44.12C61.4498 44.12 61.1605 44.1807 60.8805 44.302C60.6005 44.414 60.3531 44.568 60.1385 44.764C59.9331 44.96 59.7651 45.184 59.6345 45.436C59.5131 45.688 59.4525 45.9493 59.4525 46.22H63.8765ZM59.4245 46.976C59.4525 47.3027 59.5318 47.6107 59.6625 47.9C59.7931 48.1893 59.9658 48.4413 60.1805 48.656C60.3951 48.8613 60.6425 49.0247 60.9225 49.146C61.2025 49.2673 61.5058 49.328 61.8325 49.328C62.3271 49.328 62.7518 49.216 63.1065 48.992C63.4705 48.7587 63.7458 48.4927 63.9325 48.194L64.6465 48.782C64.2545 49.2767 63.8205 49.6313 63.3445 49.846C62.8778 50.0607 62.3738 50.168 61.8325 50.168C61.3471 50.168 60.8945 50.084 60.4745 49.916C60.0638 49.7387 59.7091 49.496 59.4105 49.188C59.1118 48.88 58.8738 48.516 58.6965 48.096C58.5285 47.676 58.4445 47.2187 58.4445 46.724C58.4445 46.2293 58.5285 45.772 58.6965 45.352C58.8645 44.932 59.0978 44.568 59.3965 44.26C59.6951 43.952 60.0451 43.714 60.4465 43.546C60.8478 43.3687 61.2818 43.28 61.7485 43.28C62.2431 43.28 62.6865 43.3687 63.0785 43.546C63.4705 43.7233 63.7971 43.9613 64.0585 44.26C64.3291 44.5493 64.5345 44.8947 64.6745 45.296C64.8145 45.688 64.8845 46.108 64.8845 46.556V46.976H59.4245Z" fill="#FFAC00"/>
</svg>
