<svg width="24" height="24" viewBox="0 0 24 24" fill="none" xmlns="http://www.w3.org/2000/svg">
<path d="M12 0C8.41201 0.00440625 5.50441 2.91197 5.5 6.50002V10.5C5.5 10.7761 5.72387 11 6.00002 11H8.00003C8.27617 11 8.50005 10.7761 8.50005 10.5V6.50002C8.5 4.56698 10.067 3 12 3C13.933 3 15.5 4.56698 15.5 6.50002V10.5C15.5 10.7761 15.7239 11 16 11H18C18.2761 11 18.5 10.7761 18.5 10.5V6.50002C18.4956 2.91197 15.588 0.00440625 12 0Z" fill="#9EA7B2"/>
<path d="M5.99999 10H18C19.3807 10 20.5 11.1193 20.5 12.5V21.5C20.5 22.8807 19.3807 24 18 24H5.99999C4.61928 24 3.5 22.8807 3.5 21.5V12.5C3.5 11.1193 4.61928 10 5.99999 10Z" fill="#FFC107"/>
<path d="M14.5 15.4998C14.5058 14.1191 13.3913 12.9951 12.0106 12.9893C10.6299 12.9835 9.50583 14.098 9.50002 15.4787C9.49599 16.4331 10.0357 17.3065 10.891 17.7298L10.505 20.4298C10.4663 20.7032 10.6566 20.9562 10.93 20.9949C10.9532 20.9982 10.9766 20.9998 11 20.9998H13C13.2761 21.0026 13.5023 20.781 13.505 20.5049C13.5053 20.4795 13.5036 20.454 13.5 20.4288L13.1139 17.7288C13.9588 17.306 14.4945 16.4445 14.5 15.4998Z" fill="#9EA7B2"/>
</svg>
