<svg width="24" height="24" viewBox="0 0 24 24" fill="none" xmlns="http://www.w3.org/2000/svg">
<path d="M12 23.9767C18.6145 23.9767 23.9767 18.6145 23.9767 12C23.9767 5.38555 18.6145 0.0234375 12 0.0234375C5.38555 0.0234375 0.0234375 5.38555 0.0234375 12C0.0234375 18.6145 5.38555 23.9767 12 23.9767Z" fill="#5292CA"/>
<path fill-rule="evenodd" clip-rule="evenodd" d="M4.01488 3.0791C2.11453 5.19784 0.95911 7.99718 0.95911 11.0643C0.95911 17.6743 6.32566 23.0409 12.9357 23.0409C16.0028 23.0409 18.8022 21.8855 20.9209 19.9851C18.7288 22.4347 15.5431 23.9765 12 23.9765C5.38999 23.9765 0.0234375 18.61 0.0234375 11.9999C0.0234375 8.45692 1.56524 5.27119 4.01488 3.0791Z" fill="#4680B3"/>
<path fill-rule="evenodd" clip-rule="evenodd" d="M10.8664 13.0906C10.8679 11.247 10.8679 7.16029 10.8679 7.16029C10.8679 6.8685 11.0914 6.62537 11.3822 6.6009C11.3822 6.6009 12.2169 6.52908 13.1452 6.72946C13.8046 6.87177 14.5029 7.15346 15.0172 7.65975C16.2104 8.83458 16.612 9.87369 16.7546 10.4405C16.7548 10.4411 16.7549 10.4417 16.7551 10.4423C16.8304 10.7463 16.6634 11.0579 16.3686 11.1635C16.0739 11.269 15.747 11.1343 15.6123 10.8518C15.4289 10.4673 15.0552 9.8249 14.402 9.50761C13.8597 9.24427 13.2827 9.36651 12.9438 9.48062L12.9337 14.8328L12.9331 14.8578C12.8925 15.7345 12.0958 16.7296 10.8436 17.1854C9.31329 17.7424 7.87422 17.1866 7.43347 16.2482C7.13855 15.6203 7.14397 14.8624 7.54664 14.2271C7.80002 13.8273 8.21495 13.4695 8.83581 13.2435C9.55511 12.9817 10.2767 12.9488 10.8664 13.0906Z" fill="#F8CA50"/>
<path d="M19.2873 23.9765C21.8772 23.9765 23.9767 21.8769 23.9767 19.2871C23.9767 16.6972 21.8772 14.5977 19.2873 14.5977C16.6974 14.5977 14.5979 16.6972 14.5979 19.2871C14.5979 21.8769 16.6974 23.9765 19.2873 23.9765Z" fill="#E9E9E9"/>
<path fill-rule="evenodd" clip-rule="evenodd" d="M18.8661 20.3743V17.1764C18.8661 16.944 19.0547 16.7554 19.2871 16.7554C19.5195 16.7554 19.7082 16.944 19.7082 17.1764V20.3743L20.8934 19.1891C21.0577 19.0248 21.3245 19.0248 21.4889 19.1891C21.6532 19.3534 21.6532 19.6202 21.4889 19.7845L19.6285 21.6449C19.6285 21.6449 19.3072 22.0064 18.9894 21.6886L17.0854 19.7845C16.9211 19.6202 16.9211 19.3534 17.0854 19.1891C17.2497 19.0248 17.5165 19.0248 17.6809 19.1891L18.8661 20.3743Z" fill="#F8CA50"/>
</svg>
