<svg width="24" height="24" viewBox="0 0 24 24" fill="none" xmlns="http://www.w3.org/2000/svg">
<g clip-path="url(#clip0_194_2253)">
<path d="M18.5239 8.07968V17.5258C18.5239 18.8036 17.4842 19.8433 16.2064 19.8433H11.9366L9.26194 21.7089L5.98307 23.9964V19.8433H2.31748C1.03968 19.8433 0 18.8036 0 17.5258V8.07968C0 6.80142 1.03968 5.76221 2.31748 5.76221H16.2064C17.4842 5.76221 18.5239 6.80142 18.5239 8.07968Z" fill="#F5D34F"/>
<path d="M18.5239 8.07968V17.5258C18.5239 18.8036 17.4842 19.8433 16.2064 19.8433H11.9366L9.26196 21.7089V5.76221H16.2064C17.4842 5.76221 18.5239 6.80142 18.5239 8.07968Z" fill="#FFA320"/>
<path d="M23.4737 3.0712L14.2176 12.3274L11.5676 12.4364L11.6767 9.78646L20.9328 0.530319C21.6345 -0.171346 22.7724 -0.171674 23.4741 0.529991C23.8248 0.88066 24.0005 1.34073 24.0001 1.80043C24.0001 2.26051 23.8244 2.72053 23.4737 3.0712Z" fill="#619CED"/>
<path d="M3.22583 9.3667H9.26186V10.7729H3.22583V9.3667Z" fill="#FFA320"/>
<path d="M3.22583 12.0962H9.26186V13.5024H3.22583V12.0962Z" fill="#FFA320"/>
<path d="M3.22583 14.8257H15.2655V16.2319H3.22583V14.8257Z" fill="#FFA320"/>
<path d="M23.4737 3.071L14.2176 12.3272L11.5676 12.4362L23.4741 0.529785C23.8247 0.880454 24.0004 1.34053 24.0001 1.80023C24.0001 2.2603 23.8244 2.72033 23.4737 3.071Z" fill="#4773CC"/>
<path d="M14.8331 11.7119L14.2176 12.3274L11.5676 12.4365L11.6767 9.78642L12.2922 9.1709L14.8331 11.7119Z" fill="#514C7E"/>
<path d="M14.8331 11.7119L14.2176 12.3274L11.5676 12.4365L13.5626 10.4414L14.8331 11.7119Z" fill="#2D2F5C"/>
<path d="M9.26196 14.8262H15.2657V16.2324H9.26196V14.8262Z" fill="#F78002"/>
</g>
<defs>
<clipPath id="clip0_194_2253">
<rect width="24" height="24" fill="white"/>
</clipPath>
</defs>
</svg>
