<svg width="25" height="17" viewBox="0 0 25 17" fill="none" xmlns="http://www.w3.org/2000/svg">
<path d="M24.5 9.49582V9.9107C24.5 13.3223 21.7243 16.0976 18.3131 16.0976H6.68692C3.27563 16.0976 0.5 13.3222 0.5 9.91065V9.49577C0.5 6.08448 3.27563 3.30915 6.68692 3.30915L7.37138 3.33384C7.37138 3.33384 6.23853 4.11192 6.68692 5.7238C4.50617 5.7238 2.91539 7.41587 2.91539 9.49577V9.91036C2.91539 11.9902 4.60751 13.6822 6.68692 13.6822H18.3131C20.3929 13.6822 22.0849 11.9902 22.0849 9.91036V9.49577C22.0849 7.41592 20.3929 5.7238 18.3131 5.7238H12.7737H11.313L12.1654 7.88187C12.1955 7.95787 12.171 8.04484 12.1055 8.09428C12.04 8.14357 11.9497 8.14327 11.8849 8.09324L7.42052 4.6612C7.37591 4.62671 7.34944 4.57339 7.34974 4.51682C7.34974 4.46025 7.37591 4.40692 7.42052 4.37244L11.8852 0.94C11.9176 0.914715 11.9569 0.902466 11.996 0.902466C12.0347 0.902466 12.073 0.914419 12.1057 0.939114C12.1713 0.988552 12.1955 1.07518 12.1657 1.15133L11.3133 3.30969H12.7743H18.3134C21.7243 3.3092 24.5 6.08482 24.5 9.49582Z" fill="#FFAC00"/>
</svg>
