<svg width="21" height="16" viewBox="0 0 21 16" fill="none" xmlns="http://www.w3.org/2000/svg">
<g clip-path="url(#clip0_713_9074)">
<path d="M13.4908 9.25006C14.0001 9.25006 14.4167 8.83339 14.4167 8.32414C14.4167 7.81488 14.0001 7.39821 13.4908 7.39821C12.9816 7.39821 12.5649 7.81488 12.5649 8.32414C12.5649 8.83339 12.9816 9.25006 13.4908 9.25006ZM7.00934 9.25006C7.5186 9.25006 7.93527 8.83339 7.93527 8.32414C7.93527 7.81488 7.5186 7.39821 7.00934 7.39821C6.50008 7.39821 6.08341 7.81488 6.08341 8.32414C6.08341 8.8334 6.50008 9.25006 7.00934 9.25006ZM10.2501 9.25006C10.7593 9.25006 11.176 8.83339 11.176 8.32414C11.176 7.81488 10.7593 7.39821 10.2501 7.39821C9.74082 7.39821 9.32416 7.81488 9.32416 8.32414C9.32416 8.83339 9.74082 9.25006 10.2501 9.25006Z" fill="#ABABAB"/>
</g>
<path d="M7.33333 1.75008H13.1667V0.0834147H7.33333V1.75008ZM13.1667 14.2501H7.33333V15.9167H13.1667V14.2501ZM7.33333 14.2501C3.88155 14.2501 1.08333 11.4519 1.08333 8.00008H-0.583333C-0.583333 12.3723 2.96108 15.9167 7.33333 15.9167V14.2501ZM19.4167 8.00008C19.4167 11.4519 16.6184 14.2501 13.1667 14.2501V15.9167C17.5389 15.9167 21.0833 12.3723 21.0833 8.00008H19.4167ZM13.1667 1.75008C16.6184 1.75008 19.4167 4.5483 19.4167 8.00008H21.0833C21.0833 3.62783 17.5389 0.0834147 13.1667 0.0834147V1.75008ZM7.33333 0.0834147C2.96108 0.0834147 -0.583333 3.62783 -0.583333 8.00008H1.08333C1.08333 4.5483 3.88155 1.75008 7.33333 1.75008V0.0834147Z" fill="#ABABAB"/>
<defs>
<clipPath id="clip0_713_9074">
<path d="M0.25 8.00008C0.25 4.08807 3.42132 0.916748 7.33333 0.916748H13.1667C17.0787 0.916748 20.25 4.08807 20.25 8.00008V8.00008C20.25 11.9121 17.0787 15.0834 13.1667 15.0834H7.33333C3.42132 15.0834 0.25 11.9121 0.25 8.00008V8.00008Z" fill="white"/>
</clipPath>
</defs>
</svg>
