<svg width="24" height="24" viewBox="0 0 24 24" fill="none" xmlns="http://www.w3.org/2000/svg">
<path d="M3.375 22.125H14.625C15.4534 22.125 16.125 21.4534 16.125 20.625V3.375C16.125 2.54658 15.4534 1.875 14.625 1.875H5.625L1.875 5.25V20.625C1.875 21.4534 2.54658 22.125 3.375 22.125Z" fill="#D7E6F0"/>
<path d="M14.0625 6.375H6.1875C5.87686 6.375 5.625 6.62686 5.625 6.9375C5.625 7.24814 5.87686 7.5 6.1875 7.5H14.0625C14.3731 7.5 14.625 7.24814 14.625 6.9375C14.625 6.62686 14.3731 6.375 14.0625 6.375Z" fill="#A5C3DC"/>
<path d="M14.0625 8.625H3.9375C3.62686 8.625 3.375 8.87686 3.375 9.1875C3.375 9.49814 3.62686 9.75 3.9375 9.75H14.0625C14.3731 9.75 14.625 9.49814 14.625 9.1875C14.625 8.87686 14.3731 8.625 14.0625 8.625Z" fill="#A5C3DC"/>
<path d="M14.0625 10.875H3.9375C3.62686 10.875 3.375 11.1269 3.375 11.4375C3.375 11.7481 3.62686 12 3.9375 12H14.0625C14.3731 12 14.625 11.7481 14.625 11.4375C14.625 11.1269 14.3731 10.875 14.0625 10.875Z" fill="#A5C3DC"/>
<path d="M14.0625 13.125H3.9375C3.62686 13.125 3.375 13.3769 3.375 13.6875C3.375 13.9981 3.62686 14.25 3.9375 14.25H14.0625C14.3731 14.25 14.625 13.9981 14.625 13.6875C14.625 13.3769 14.3731 13.125 14.0625 13.125Z" fill="#A5C3DC"/>
<path d="M14.0625 15.375H3.9375C3.62686 15.375 3.375 15.6269 3.375 15.9375C3.375 16.2481 3.62686 16.5 3.9375 16.5H14.0625C14.3731 16.5 14.625 16.2481 14.625 15.9375C14.625 15.6269 14.3731 15.375 14.0625 15.375Z" fill="#A5C3DC"/>
<path d="M9.5625 17.625H3.9375C3.62686 17.625 3.375 17.8769 3.375 18.1875C3.375 18.4981 3.62686 18.75 3.9375 18.75H9.5625C9.87314 18.75 10.125 18.4981 10.125 18.1875C10.125 17.8769 9.87314 17.625 9.5625 17.625Z" fill="#A5C3DC"/>
<path d="M5.625 1.875V3.75C5.625 4.57842 4.95342 5.25 4.125 5.25H1.875L5.625 1.875Z" fill="#A5C3DC"/>
<path d="M19.4813 18.9023L16.125 21L12.7687 18.9023C11.1241 17.8744 10.125 16.0718 10.125 14.1323V8.25C10.125 8.04291 10.2929 7.875 10.5 7.875C11.7427 7.875 12.75 6.86766 12.75 5.625C12.75 5.41791 12.9179 5.25 13.125 5.25H19.125C19.3321 5.25 19.5 5.41791 19.5 5.625C19.5 6.86766 20.5073 7.875 21.75 7.875C21.9571 7.875 22.125 8.04291 22.125 8.25V14.1323C22.125 16.0718 21.1259 17.8744 19.4813 18.9023Z" fill="#FF6E91"/>
<path d="M10.875 14.3198C10.7715 14.3198 10.6875 14.2359 10.6875 14.1323V8.60166C10.6875 8.50711 10.7579 8.42733 10.8517 8.41561C12.1278 8.25572 13.1308 7.25278 13.2907 5.9767C13.3024 5.88291 13.3822 5.8125 13.4767 5.8125H15.375C15.4785 5.8125 15.5625 5.89645 15.5625 6C15.5625 6.10355 15.4785 6.1875 15.375 6.1875H13.6378C13.404 7.50089 12.3759 8.52895 11.0625 8.76281V14.1323C11.0625 14.2359 10.9785 14.3198 10.875 14.3198Z" fill="#FF8CAF"/>
<path d="M21.75 7.875C20.5073 7.875 19.5 6.86766 19.5 5.625C19.5 5.41791 19.3321 5.25 19.125 5.25H16.125V21L19.4813 18.9023C21.1259 17.8745 22.125 16.0718 22.125 14.1323V8.25C22.125 8.04291 21.9571 7.875 21.75 7.875Z" fill="#E64178"/>
<path d="M13.5637 17.6303C12.3498 16.8716 11.625 15.564 11.625 14.1323V9.20264C12.7897 8.83566 13.7107 7.91461 14.0776 6.75H18.1724C18.5393 7.91466 19.4604 8.83566 20.625 9.20264V14.1323C20.625 15.564 19.9002 16.8716 18.6863 17.6303L16.125 19.2311L13.5637 17.6303Z" fill="#D7E6E6"/>
<path d="M20.625 9.20264C19.4603 8.83566 18.5393 7.91461 18.1724 6.75H16.125V19.2311L18.6863 17.6303C19.9002 16.8716 20.625 15.564 20.625 14.1323V9.20264Z" fill="#AAC3D7"/>
<path d="M18.1724 6.75H14.0776C13.7107 7.91466 12.7896 8.83566 11.625 9.20264V9.95264C12.7897 9.58566 13.7107 8.66461 14.0776 7.5H18.1724C18.5393 8.66466 19.4604 9.58566 20.625 9.95264V9.20264C19.4603 8.83566 18.5393 7.91466 18.1724 6.75Z" fill="#AAC3D7"/>
<path d="M16.125 16.125C17.989 16.125 19.5 14.614 19.5 12.75C19.5 10.886 17.989 9.375 16.125 9.375C14.261 9.375 12.75 10.886 12.75 12.75C12.75 14.614 14.261 16.125 16.125 16.125Z" fill="#E64178"/>
<path d="M15.5 14.3125C15.356 14.3125 15.2121 14.2576 15.1022 14.1478L14.3522 13.3978C14.1326 13.1781 14.1326 12.8219 14.3522 12.6022C14.5719 12.3826 14.9281 12.3826 15.1478 12.6022L15.5 12.9545L16.9773 11.4772C17.197 11.2576 17.5531 11.2576 17.7728 11.4772C17.9925 11.6969 17.9925 12.0531 17.7728 12.2728L15.8978 14.1478C15.7879 14.2576 15.6439 14.3125 15.5 14.3125Z" fill="#D7E6E6"/>
</svg>
