<svg width="24" height="24" viewBox="0 0 24 24" fill="none" xmlns="http://www.w3.org/2000/svg">
<path d="M7.5 16.1895L9.3105 18H12.4395L11.9093 17.4701C11.5673 17.1278 11.349 16.6954 11.2766 16.227L10.5791 15.8782C10.1933 15.6851 9.918 15.345 9.80625 14.9441L9 15.75L7.5 14.25L4.91475 15.414C4.6605 15.5411 4.5 15.8006 4.5 16.0849V18H5.6895L7.5 16.1895Z" fill="#64C8F0"/>
<path d="M9.80625 14.944C9.7695 14.8135 9.75 14.677 9.75 14.5367V14.2502C9.75 13.6978 10.0545 13.2212 10.5 12.961V12.7502V12.6216H7.5V14.2502L9 15.7502L9.80625 14.944Z" fill="#D2AA82"/>
<path d="M9.96 13.4921C10.0957 13.266 10.2892 13.0777 10.5199 12.948C10.5113 12.8824 10.5 12.8179 10.5 12.75V11.25C10.5 10.1426 11.1049 9.1755 12 8.65613V6.75C12 6.33562 11.6644 6 11.25 6H6.75C6.33562 6 6 6.33562 6 6.75V9H5.25C4.83562 9 4.5 9.33562 4.5 9.75V10.0365C4.5 10.3207 4.6605 10.5802 4.91475 10.7074L6 11.25V11.3786C6 11.7765 6.15788 12.1579 6.4395 12.4391L7.06088 13.0605C7.34213 13.3417 7.72387 13.5 8.12137 13.5H9.87862C9.90637 13.5 9.93262 13.4936 9.96 13.4921Z" fill="#F0C8A0"/>
<path d="M13.5 18.7502V17.1216H16.5V18.7502L15 20.2502L13.5 18.7502Z" fill="#D2AA82"/>
<path d="M18.75 13.5H18V11.25C18 10.8356 17.6644 10.5 17.25 10.5H12.75C12.3356 10.5 12 10.8356 12 11.25V13.5H11.25C10.8356 13.5 10.5 13.8356 10.5 14.25V14.5365C10.5 14.8207 10.6605 15.0803 10.9148 15.2074L12 15.75V15.8786C12 16.2765 12.1579 16.6579 12.4395 16.9391L13.0609 17.5605C13.3421 17.8417 13.7239 18 14.1214 18H15.8786C16.2765 18 16.6579 17.8421 16.9391 17.5605L17.5605 16.9391C17.8417 16.6579 18 16.2761 18 15.8786V15.75L19.0853 15.2074C19.3395 15.0803 19.5 14.8204 19.5 14.5365V14.25C19.5 13.8356 19.1644 13.5 18.75 13.5Z" fill="#F0C8A0"/>
<path d="M18.75 14.25C17.9216 14.25 17.25 13.5784 17.25 12.75V10.5H18C18.4144 10.5 18.75 10.8356 18.75 11.25V14.25Z" fill="#DC9600"/>
<path d="M12.75 6.75C12.75 6.33562 12.4144 6 12 6H11.25V8.25C11.25 8.54062 11.3363 8.8095 11.4791 9.039C11.835 8.71312 12.2689 8.47312 12.75 8.34862V6.75Z" fill="#DC9600"/>
<path d="M16.5 9H13.5C12.2573 9 11.25 10.0073 11.25 11.25V12.75C11.25 13.1644 11.5856 13.5 12 13.5H13.8859C15.0795 13.5 16.224 13.026 17.0677 12.1819L17.5605 11.6891C17.8417 11.4079 18 11.0261 18 10.6286V10.5C18 9.67162 17.3284 9 16.5 9Z" fill="#FAB400"/>
<path d="M14.25 14.4375H12.75C12.6465 14.4375 12.5625 14.3535 12.5625 14.25C12.5625 14.1465 12.6465 14.0625 12.75 14.0625H14.25C14.3535 14.0625 14.4375 14.1465 14.4375 14.25C14.4375 14.3535 14.3535 14.4375 14.25 14.4375Z" fill="#BE7800"/>
<path d="M13.875 15C14.0821 15 14.25 14.8321 14.25 14.625C14.25 14.4179 14.0821 14.25 13.875 14.25C13.6679 14.25 13.5 14.4179 13.5 14.625C13.5 14.8321 13.6679 15 13.875 15Z" fill="#BE7800"/>
<path d="M17.25 14.4375H15.75C15.6465 14.4375 15.5625 14.3535 15.5625 14.25C15.5625 14.1465 15.6465 14.0625 15.75 14.0625H17.25C17.3535 14.0625 17.4375 14.1465 17.4375 14.25C17.4375 14.3535 17.3535 14.4375 17.25 14.4375Z" fill="#BE7800"/>
<path d="M16.125 15C16.3321 15 16.5 14.8321 16.5 14.625C16.5 14.4179 16.3321 14.25 16.125 14.25C15.9179 14.25 15.75 14.4179 15.75 14.625C15.75 14.8321 15.9179 15 16.125 15Z" fill="#BE7800"/>
<path d="M15.0001 16.6873C14.7496 16.6873 14.5141 16.5898 14.3371 16.4128L14.1173 16.193C14.0442 16.1199 14.0442 16.001 14.1173 15.9279C14.1905 15.8548 14.3093 15.8548 14.3825 15.9279L14.6022 16.1476C14.8145 16.3599 15.1853 16.3599 15.3976 16.1476L15.6173 15.9279C15.6905 15.8548 15.8093 15.8548 15.8825 15.9279C15.9556 16.001 15.9556 16.1199 15.8825 16.193L15.6627 16.4128C15.4861 16.5898 15.2506 16.6873 15.0001 16.6873Z" fill="#BE7800"/>
<path d="M19.5 22.5V20.5849C19.5 20.3006 19.3395 20.0411 19.0853 19.914L16.5 18.75L15 20.25L13.5 18.75L10.9148 19.914C10.6605 20.0411 10.5 20.3006 10.5 20.5849V22.5H19.5Z" fill="#FA6450"/>
<path d="M12 22.5V20.5849C12 20.3006 12.1605 20.0411 12.4147 19.914L13.9657 19.2158L13.5 18.75L10.9148 19.914C10.6605 20.0411 10.5 20.3006 10.5 20.5849V22.5H12Z" fill="#DC4632"/>
<path d="M10.5 4.5H7.5C6.25725 4.5 5.25 5.50725 5.25 6.75V8.25C5.25 8.66437 5.58562 9 6 9H7.88587C9.0795 9 10.224 8.526 11.0677 7.68188L11.5605 7.18912C11.8417 6.90787 12 6.52613 12 6.12863V6C12 5.17162 11.3284 4.5 10.5 4.5Z" fill="#FAB400"/>
<path d="M6 17.6895V16.0849C6 15.801 6.1605 15.5411 6.41475 15.414L7.96575 14.7158L7.5 14.25L4.91475 15.414C4.6605 15.5411 4.5 15.8006 4.5 16.0849V18H5.6895L6 17.6895Z" fill="#46AAD2"/>
<path d="M8.25 21V19.5H9.75L7.5 17.25L5.25 19.5H6.75V21.75C6.75 22.1644 7.08562 22.5 7.5 22.5H9.75V21H8.25Z" fill="#FAB400"/>
<path d="M7.5 21.75V19.5H6.75V21.75C6.75 22.164 7.08562 22.5 7.5 22.5H8.25C7.83562 22.5 7.5 22.164 7.5 21.75Z" fill="#DC9600"/>
<path d="M7.5 17.25L5.25 19.5H6L7.875 17.625L7.5 17.25Z" fill="#DC9600"/>
<path d="M19.125 8.25C17.2609 8.25 15.75 6.73913 15.75 4.875C15.75 3.01087 17.2609 1.5 19.125 1.5C20.9891 1.5 22.5 3.01087 22.5 4.875C22.5 6.73913 20.9891 8.25 19.125 8.25Z" fill="#64C8F0"/>
<path d="M16.5 4.875C16.5 3.138 17.8129 1.70888 19.5 1.52213C19.3766 1.50825 19.2517 1.5 19.125 1.5C17.2609 1.5 15.75 3.01087 15.75 4.875C15.75 6.73913 17.2609 8.25 19.125 8.25C19.2517 8.25 19.3766 8.24175 19.5 8.22787C17.8129 8.04112 16.5 6.612 16.5 4.875Z" fill="#46AAD2"/>
<path d="M19.1249 6.1095L17.9066 6.75L18.1391 5.39325L17.1536 4.4325L18.5156 4.2345L19.1249 3L19.7343 4.2345L21.0963 4.4325L20.1108 5.39325L20.3433 6.75L19.1249 6.1095Z" fill="#F0F0F0"/>
</svg>
