<svg width="17" height="16" viewBox="0 0 17 16" fill="none" xmlns="http://www.w3.org/2000/svg">
<path d="M6.20169 4.85878L7.74979 3.31069V11.5C7.74979 11.699 7.8288 11.8897 7.96946 12.0304C8.11011 12.171 8.30087 12.25 8.49979 12.25C8.6987 12.25 8.88946 12.171 9.03012 12.0304C9.17077 11.8897 9.24979 11.699 9.24979 11.5V3.31069L10.7979 4.85878C10.8675 4.92874 10.9501 4.98428 11.0412 5.02222C11.1323 5.06016 11.23 5.07976 11.3286 5.0799C11.4273 5.08003 11.525 5.06069 11.6162 5.023C11.7074 4.98531 11.7902 4.92999 11.86 4.86023C11.9297 4.79046 11.9851 4.70761 12.0228 4.61644C12.0604 4.52526 12.0798 4.42754 12.0796 4.32887C12.0795 4.23021 12.0599 4.13254 12.022 4.04147C11.984 3.95039 11.9285 3.8677 11.8585 3.79812L9.03013 0.969684C8.96049 0.900036 8.8778 0.844788 8.78681 0.807094C8.69581 0.769401 8.59828 0.75 8.49979 0.75C8.40129 0.75 8.30376 0.769401 8.21276 0.807094C8.12177 0.844788 8.03909 0.900036 7.96944 0.969684L5.14104 3.79812C5.07108 3.8677 5.01554 3.95039 4.9776 4.04147C4.93966 4.13254 4.92006 4.23021 4.91992 4.32887C4.91979 4.42754 4.93912 4.52526 4.97682 4.61644C5.01451 4.70761 5.06983 4.79046 5.13959 4.86023C5.20936 4.92999 5.2922 4.98531 5.38338 5.023C5.47456 5.06069 5.57228 5.08003 5.67094 5.0799C5.7696 5.07976 5.86727 5.06016 5.95835 5.02222C6.04942 4.98428 6.13212 4.92874 6.20169 4.85878Z" fill="black"/>
<path d="M15 7.25C14.8011 7.25 14.6103 7.32902 14.4697 7.46967C14.329 7.61032 14.25 7.80109 14.25 8V13.75H2.75V8C2.75 7.80109 2.67098 7.61032 2.53033 7.46967C2.38968 7.32902 2.19891 7.25 2 7.25C1.80109 7.25 1.61032 7.32902 1.46967 7.46967C1.32902 7.61032 1.25 7.80109 1.25 8V14C1.25 14.3315 1.3817 14.6495 1.61612 14.8839C1.85054 15.1183 2.16848 15.25 2.5 15.25H14.5C14.8315 15.25 15.1495 15.1183 15.3839 14.8839C15.6183 14.6495 15.75 14.3315 15.75 14V8C15.75 7.80109 15.671 7.61032 15.5303 7.46967C15.3897 7.32902 15.1989 7.25 15 7.25Z" fill="black"/>
</svg>
