<svg width="24" height="24" viewBox="0 0 24 24" fill="none" xmlns="http://www.w3.org/2000/svg">
<path fill-rule="evenodd" clip-rule="evenodd" d="M13.687 1.42228C13.6804 1.23946 13.6076 1.06527 13.4822 0.932154C13.3567 0.799038 13.1871 0.716072 13.005 0.698712C12.3409 0.641133 11.6731 0.641447 11.0091 0.69965C10.8249 0.717228 10.6536 0.802025 10.528 0.937852C10.4023 1.07368 10.3311 1.25102 10.328 1.43601C10.3073 2.53601 9.73921 3.33914 8.62358 3.84539C7.47655 4.27664 6.50749 4.11003 5.7164 3.34556C5.58299 3.21679 5.40684 3.14165 5.22157 3.13445C5.0363 3.12726 4.85486 3.18852 4.71187 3.30656C4.20458 3.73319 3.73532 4.20308 3.30937 4.71093C3.19144 4.85361 3.13022 5.03473 3.1374 5.21969C3.14458 5.40465 3.21965 5.58048 3.34827 5.71359C4.11187 6.50596 4.27812 7.4755 3.84702 8.62218C3.34077 9.738 2.53765 10.3055 1.43765 10.3247C1.25229 10.328 1.07463 10.3994 0.938557 10.5253C0.80248 10.6512 0.717505 10.8228 0.699836 11.0073C0.642883 11.6677 0.643354 12.3318 0.701242 12.9922C0.718855 13.1764 0.80366 13.3476 0.93948 13.4733C1.0753 13.599 1.25263 13.6703 1.43765 13.6736C2.5378 13.694 3.34093 14.262 3.84702 15.3774C4.27827 16.5243 4.11171 17.4935 3.34734 18.285C3.21848 18.4184 3.14329 18.5946 3.13611 18.7799C3.12893 18.9652 3.19028 19.1466 3.30843 19.2895C3.73503 19.7968 4.20493 20.2661 4.7128 20.692C4.85551 20.8099 5.03662 20.871 5.22156 20.8639C5.4065 20.8567 5.58232 20.7816 5.71546 20.6531C6.50765 19.8897 7.47702 19.7234 8.62358 20.1542C9.73968 20.6604 10.3073 21.4636 10.3266 22.5636C10.3297 22.7489 10.4011 22.9266 10.527 23.0627C10.6529 23.1988 10.8245 23.2838 11.0091 23.3014C11.6694 23.3582 12.3335 23.3578 12.9937 23.3C13.178 23.2825 13.3494 23.1977 13.4751 23.0618C13.6008 22.926 13.6721 22.7486 13.6753 22.5635C13.6959 21.4635 14.2639 20.6603 15.3792 20.1541C16.5258 19.723 17.4948 19.8896 18.2864 20.6539C18.4198 20.7826 18.5959 20.8578 18.7812 20.865C18.9665 20.8722 19.1479 20.8109 19.2909 20.6929C19.7982 20.2662 20.2675 19.7963 20.6934 19.2885C20.8113 19.1458 20.8726 18.9647 20.8654 18.7797C20.8582 18.5948 20.7831 18.419 20.6545 18.2859C19.8914 17.4935 19.7251 16.524 20.1558 15.3773C20.662 14.2615 21.4651 13.694 22.5651 13.6748C22.7506 13.6717 22.9284 13.6003 23.0645 13.4744C23.2007 13.3485 23.2857 13.1768 23.3034 12.9922C23.3599 12.3318 23.3594 11.6677 23.302 11.0074C23.2844 10.8231 23.1995 10.6518 23.0636 10.5261C22.9277 10.4004 22.7502 10.3292 22.5651 10.326C21.4655 10.3055 20.6623 9.7375 20.1558 8.62209C19.7245 7.47521 19.8911 6.50601 20.6555 5.71448C20.7843 5.58114 20.8595 5.405 20.8667 5.21971C20.8739 5.03443 20.8125 4.85299 20.6944 4.71009C20.2678 4.20276 19.7979 3.73349 19.29 3.30759C19.1473 3.18974 18.9662 3.12857 18.7812 3.13576C18.5963 3.14296 18.4205 3.21801 18.2873 3.34659C17.4951 4.10996 16.5258 4.27625 15.3792 3.84543C13.9917 3.32381 13.7151 2.15432 13.687 1.42228Z" fill="#C9CDE0"/>
<path fill-rule="evenodd" clip-rule="evenodd" d="M11.2627 0.680041C11.8388 0.642847 12.4168 0.649272 12.9919 0.69926C13.1767 0.716397 13.3487 0.801115 13.4749 0.937182C13.6011 1.07325 13.6726 1.2511 13.6758 1.43665C13.696 2.53643 14.2638 3.3394 15.3793 3.84556C15.5109 3.89525 15.6449 3.93811 15.781 3.97395C15.2189 4.14804 14.5925 4.10524 13.9018 3.84556C12.5771 3.24462 12.025 2.22523 12.2457 0.787385C11.9194 0.737697 11.5918 0.701916 11.2627 0.680041ZM18.0736 3.53351C18.1477 3.47426 18.2199 3.41023 18.2911 3.34132C18.4245 3.21476 18.5996 3.14139 18.7833 3.13504C18.9671 3.12869 19.1468 3.18981 19.2886 3.30687C19.7972 3.73282 20.2673 4.20275 20.6935 4.7112C20.8114 4.85385 20.8726 5.03496 20.8654 5.2199C20.8583 5.40485 20.7832 5.58067 20.6546 5.71376C19.8914 6.5061 19.7252 7.47562 20.1558 8.6223C20.6621 9.73818 21.4652 10.3057 22.5652 10.3248C22.7506 10.328 22.9284 10.3993 23.0646 10.5253C23.2007 10.6512 23.2858 10.8228 23.3035 11.0074C23.3599 11.6679 23.3595 12.3319 23.3021 12.9923C23.2844 13.1765 23.1995 13.3479 23.0636 13.4736C22.9277 13.5992 22.7503 13.6705 22.5652 13.6737C21.4655 13.6942 20.6624 14.2621 20.1558 15.3775C19.7246 16.5244 19.8911 17.4936 20.6555 18.2852C20.7843 18.4185 20.8596 18.5946 20.8667 18.7799C20.8739 18.9652 20.8126 19.1466 20.6944 19.2895C20.2674 19.7973 19.797 20.267 19.2886 20.6932C19.1468 20.8103 18.9671 20.8715 18.7833 20.8651C18.5996 20.8588 18.4245 20.7854 18.2911 20.6588C18.2203 20.5896 18.1478 20.5255 18.0736 20.4663C18.5285 20.0608 18.9498 19.6192 19.3336 19.1459C19.422 19.036 19.466 18.897 19.4568 18.7563C19.4477 18.6156 19.3862 18.4834 19.2844 18.3859C18.4294 17.5785 18.2274 16.5757 18.6783 15.3775C19.2064 14.2127 20.0585 13.6454 21.2344 13.6757C21.3743 13.6786 21.5103 13.6291 21.6156 13.5369C21.7209 13.4446 21.7879 13.3164 21.8035 13.1773C21.8874 12.3945 21.8883 11.6051 21.8063 10.8222C21.7907 10.6824 21.7234 10.5534 21.6176 10.4607C21.5118 10.3679 21.3751 10.3181 21.2344 10.321C20.0588 10.3545 19.2067 9.78824 18.6783 8.6223C18.2283 7.4249 18.4296 6.4213 19.2821 5.61152C19.3832 5.51455 19.4443 5.38321 19.4534 5.24339C19.4626 5.10357 19.419 4.96541 19.3313 4.85613C18.9495 4.3811 18.5288 3.9387 18.0736 3.53351ZM11.2627 23.3194C11.5913 23.298 11.9189 23.2622 12.2457 23.2121C12.0249 21.7744 12.5769 20.7551 13.9018 20.1542C14.5927 19.8945 15.2191 19.8517 15.781 20.0258C15.6449 20.0616 15.5109 20.1045 15.3793 20.1542C14.2636 20.6605 13.6961 21.4634 13.6768 22.5631C13.6735 22.7488 13.6019 22.9269 13.4755 23.063C13.3491 23.1992 13.1769 23.284 12.9919 23.301C12.4168 23.3507 11.8387 23.3569 11.2627 23.3194Z" fill="#B4B9D3"/>
<path fill-rule="evenodd" clip-rule="evenodd" d="M15.3455 13.2822C15.3549 13.3159 15.3748 13.3459 15.4023 13.3676C15.4298 13.3893 15.4635 13.4017 15.4986 13.403C15.5336 13.4042 15.5682 13.3943 15.5972 13.3746C15.6262 13.355 15.6482 13.3266 15.66 13.2936C15.9523 12.4395 15.9659 11.5146 15.6987 10.6523C15.4315 9.79003 14.8974 9.03486 14.1734 8.49568C13.4494 7.95649 12.5729 7.66115 11.6702 7.65222C10.7675 7.64329 9.88529 7.92124 9.15075 8.44601C8.41621 8.97077 7.86729 9.71523 7.58311 10.5721C7.29893 11.4289 7.29419 12.3538 7.56955 13.2135C7.84492 14.0732 8.38617 14.8233 9.11528 15.3556C9.8444 15.8879 10.7237 16.1748 11.6264 16.1752C11.7264 16.1728 11.8258 16.1905 11.9189 16.2271C12.0119 16.2637 12.0967 16.3185 12.1682 16.3884C12.2398 16.4583 12.2966 16.5417 12.3354 16.6339C12.3742 16.726 12.3942 16.825 12.3942 16.925C12.3942 17.025 12.3742 17.1239 12.3354 17.2161C12.2966 17.3082 12.2398 17.3917 12.1682 17.4616C12.0967 17.5314 12.0119 17.5863 11.9189 17.6229C11.8258 17.6595 11.7264 17.6771 11.6264 17.6748C10.3995 17.674 9.20485 17.2813 8.21681 16.5538C7.22877 15.8264 6.49901 14.8023 6.13397 13.6309C5.76893 12.4595 5.78771 11.2021 6.18758 10.0421C6.58744 8.88215 7.34747 7.88029 8.3568 7.18267C9.36613 6.48505 10.572 6.12817 11.7984 6.16409C13.0248 6.20001 14.2077 6.62684 15.1745 7.38233C16.1412 8.13783 16.8413 9.18245 17.1726 10.3638C17.5039 11.5452 17.4491 12.8015 17.0161 13.9496C17.005 13.978 17.0019 14.0089 17.0074 14.0389C17.0129 14.069 17.0266 14.0969 17.047 14.1195C17.0675 14.1422 17.0939 14.1587 17.1232 14.1672C17.1525 14.1757 17.1836 14.1758 17.213 14.1676C17.4914 14.091 17.8491 13.9922 17.8491 13.9922C18.0244 13.9437 18.2117 13.9668 18.37 14.0565C18.5282 14.1462 18.6443 14.295 18.6928 14.4703C18.7413 14.6456 18.7182 14.833 18.6285 14.9912C18.5388 15.1494 18.39 15.2656 18.2147 15.314C18.2147 15.314 16.3299 15.8355 15.3403 16.1091C15.2628 16.1306 15.1818 16.1366 15.1019 16.1267C15.0221 16.1169 14.945 16.0914 14.875 16.0517C14.805 16.0121 14.7435 15.959 14.694 15.8955C14.6445 15.8321 14.608 15.7595 14.5866 15.682C14.3128 14.6929 13.7916 12.8078 13.7916 12.8078C13.7431 12.6325 13.7662 12.4451 13.8559 12.2869C13.9456 12.1287 14.0944 12.0125 14.2697 11.964C14.445 11.9156 14.6324 11.9387 14.7906 12.0284C14.9488 12.118 15.065 12.2669 15.1135 12.4422C15.1135 12.4422 15.2419 12.9074 15.3455 13.2822Z" fill="#EF476F"/>
<path fill-rule="evenodd" clip-rule="evenodd" d="M11.2561 6.16699C11.3789 6.15921 11.5024 6.1553 11.6264 6.15527C12.5557 6.15561 13.4711 6.3807 14.2946 6.81133C15.1181 7.24196 15.8252 7.86537 16.3556 8.62838C16.8861 9.3914 17.2241 10.2714 17.3409 11.1933C17.4577 12.1152 17.3498 13.0517 17.0264 13.9229C17.0143 13.955 16.9947 13.9837 16.9693 14.0068C16.9439 14.0298 16.9134 14.0465 16.8803 14.0555L16.8621 14.0605C16.7962 14.0787 16.7267 14.0788 16.6607 14.0608C16.5948 14.0428 16.535 14.0074 16.4875 13.9583C16.44 13.9091 16.4066 13.8481 16.3909 13.7816C16.3751 13.7151 16.3776 13.6456 16.398 13.5804C16.5634 13.0408 16.647 12.4795 16.646 11.9152C16.6452 10.4518 16.0878 9.04353 15.0869 7.97605C14.0859 6.90856 12.7164 6.2618 11.2561 6.16699ZM17.6245 14.0545L17.8491 13.9925C17.9359 13.9685 18.0265 13.9618 18.1159 13.9728C18.2053 13.9839 18.2916 14.0124 18.37 14.0568C18.4483 14.1012 18.5172 14.1606 18.5726 14.2316C18.6279 14.3026 18.6688 14.3838 18.6928 14.4706C18.7168 14.5574 18.7235 14.6481 18.7125 14.7374C18.7014 14.8268 18.6729 14.9132 18.6285 14.9915C18.5841 15.0699 18.5247 15.1387 18.4537 15.1941C18.3827 15.2495 18.3015 15.2903 18.2147 15.3144C18.2147 15.3144 16.3299 15.8358 15.3403 16.1094C15.1837 16.1527 15.0163 16.132 14.8749 16.0519C14.8678 16.0478 14.8608 16.0436 14.8538 16.0392L17.4741 15.3144C17.6051 15.278 17.7224 15.2036 17.8111 15.1004C17.8997 14.9972 17.9556 14.87 17.9717 14.735C17.9879 14.5999 17.9635 14.4631 17.9016 14.342C17.8398 14.2209 17.7434 14.1209 17.6245 14.0547" fill="#DC426F"/>
<path fill-rule="evenodd" clip-rule="evenodd" d="M12.0013 2.55078C12.1168 2.55076 12.2298 2.58501 12.3259 2.64919C12.4219 2.71337 12.4968 2.8046 12.5411 2.91134C12.5853 3.01808 12.5969 3.13554 12.5743 3.24886C12.5518 3.36218 12.4962 3.46628 12.4145 3.54798C12.3328 3.62969 12.2287 3.68533 12.1154 3.70787C12.002 3.73041 11.8846 3.71884 11.7778 3.67462C11.6711 3.63041 11.5799 3.55553 11.5157 3.45945C11.4515 3.36338 11.4172 3.25043 11.4172 3.13489C11.4173 2.98 11.4788 2.83146 11.5884 2.72193C11.6979 2.6124 11.8464 2.55084 12.0013 2.55078Z" fill="#EF476F"/>
<path fill-rule="evenodd" clip-rule="evenodd" d="M18.6828 5.31825C18.7645 5.39993 18.8201 5.504 18.8427 5.6173C18.8652 5.7306 18.8537 5.84804 18.8095 5.95477C18.7653 6.06149 18.6904 6.15272 18.5944 6.2169C18.4983 6.28108 18.3854 6.31533 18.2699 6.31533C18.1543 6.31533 18.0414 6.28108 17.9454 6.2169C17.8493 6.15272 17.7744 6.06149 17.7302 5.95477C17.686 5.84804 17.6745 5.7306 17.697 5.6173C17.7196 5.504 17.7752 5.39993 17.8569 5.31825C17.9665 5.20888 18.115 5.14746 18.2699 5.14746C18.4247 5.14746 18.5732 5.20888 18.6828 5.31825Z" fill="#EF476F"/>
<path fill-rule="evenodd" clip-rule="evenodd" d="M21.4503 11.9997C21.4503 12.1152 21.4161 12.2281 21.3519 12.3241C21.2877 12.4202 21.1965 12.495 21.0897 12.5392C20.983 12.5834 20.8656 12.595 20.7523 12.5724C20.639 12.5499 20.5349 12.4942 20.4533 12.4126C20.3716 12.3309 20.316 12.2268 20.2934 12.1135C20.2709 12.0002 20.2825 11.8828 20.3267 11.7761C20.3709 11.6693 20.4458 11.5781 20.5418 11.514C20.6379 11.4498 20.7508 11.4155 20.8663 11.4155C21.0212 11.4156 21.1697 11.4772 21.2792 11.5867C21.3888 11.6962 21.4503 11.8448 21.4503 11.9997Z" fill="#EF476F"/>
<path fill-rule="evenodd" clip-rule="evenodd" d="M18.6828 18.6812C18.6011 18.7628 18.497 18.8185 18.3838 18.841C18.2705 18.8635 18.153 18.8519 18.0463 18.8077C17.9396 18.7635 17.8484 18.6887 17.7842 18.5926C17.72 18.4966 17.6858 18.3837 17.6858 18.2681C17.6858 18.1526 17.72 18.0397 17.7842 17.9437C17.8484 17.8476 17.9396 17.7728 18.0463 17.7286C18.153 17.6843 18.2705 17.6728 18.3838 17.6953C18.497 17.7178 18.6011 17.7734 18.6828 17.8551C18.7923 17.9647 18.8538 18.1132 18.8538 18.2681C18.8538 18.423 18.7923 18.5716 18.6828 18.6812Z" fill="#EF476F"/>
<path fill-rule="evenodd" clip-rule="evenodd" d="M12.0013 20.2803C12.1168 20.2803 12.2298 20.3145 12.3258 20.3787C12.4219 20.4429 12.4968 20.5341 12.541 20.6408C12.5852 20.7476 12.5968 20.865 12.5742 20.9783C12.5517 21.0916 12.4961 21.1957 12.4144 21.2774C12.3327 21.3591 12.2286 21.4147 12.1153 21.4373C12.002 21.4598 11.8846 21.4483 11.7778 21.404C11.6711 21.3598 11.5799 21.285 11.5157 21.1889C11.4515 21.0929 11.4172 20.9799 11.4172 20.8644C11.4173 20.7095 11.4788 20.5609 11.5883 20.4514C11.6979 20.3419 11.8464 20.2803 12.0013 20.2803Z" fill="#EF476F"/>
<path fill-rule="evenodd" clip-rule="evenodd" d="M6.14609 17.8551C6.22776 17.9368 6.28337 18.0409 6.30588 18.1543C6.3284 18.2676 6.31681 18.385 6.27259 18.4917C6.22836 18.5985 6.15348 18.6897 6.05742 18.7539C5.96135 18.8181 5.84842 18.8523 5.73288 18.8523C5.61735 18.8523 5.50442 18.8181 5.40835 18.7539C5.31229 18.6897 5.23741 18.5985 5.19318 18.4917C5.14896 18.385 5.13737 18.2676 5.15988 18.1543C5.1824 18.0409 5.23801 17.9368 5.31968 17.8551C5.4293 17.7456 5.57792 17.6841 5.73288 17.6841C5.88784 17.6841 6.03646 17.7456 6.14609 17.8551Z" fill="#EF476F"/>
<path fill-rule="evenodd" clip-rule="evenodd" d="M3.72084 11.9997C3.72087 12.1153 3.68662 12.2283 3.62242 12.3244C3.55822 12.4205 3.46696 12.4954 3.36019 12.5396C3.25341 12.5839 3.13591 12.5955 3.02255 12.5729C2.90919 12.5504 2.80507 12.4947 2.72335 12.413C2.64163 12.3312 2.58599 12.2271 2.56346 12.1137C2.54093 12.0004 2.55252 11.8829 2.59678 11.7761C2.64103 11.6693 2.71596 11.5781 2.81208 11.5139C2.9082 11.4497 3.0212 11.4155 3.13678 11.4155C3.29165 11.4157 3.44015 11.4773 3.54965 11.5868C3.65916 11.6963 3.72073 11.8448 3.72084 11.9997Z" fill="#EF476F"/>
<path fill-rule="evenodd" clip-rule="evenodd" d="M6.14615 6.14426C6.06445 6.226 5.96034 6.28166 5.847 6.30423C5.73366 6.32679 5.61618 6.31524 5.50941 6.27102C5.40263 6.22681 5.31137 6.15193 5.24716 6.05584C5.18295 5.95976 5.14868 5.84679 5.14868 5.73122C5.14868 5.61566 5.18295 5.50269 5.24716 5.4066C5.31137 5.31052 5.40263 5.23564 5.50941 5.19142C5.61618 5.14721 5.73366 5.13565 5.847 5.15822C5.96034 5.18078 6.06445 5.23645 6.14615 5.31818C6.25552 5.42782 6.31695 5.57636 6.31695 5.73122C6.31695 5.88609 6.25552 6.03463 6.14615 6.14426Z" fill="#EF476F"/>
</svg>
