<svg width="14" height="14" viewBox="0 0 14 14" fill="none" xmlns="http://www.w3.org/2000/svg">
<path d="M10.3907 4.83184C10.2016 4.076 9.76546 3.40499 9.15145 2.92538C8.53743 2.44576 7.78078 2.18502 7.00165 2.18457C6.22252 2.18412 5.46556 2.44398 4.85099 2.92288C4.23642 3.40178 3.79946 4.07228 3.60949 4.8279C2.71342 4.912 1.88418 5.33805 1.29402 6.01756C0.703861 6.69707 0.398149 7.57781 0.440383 8.47683C0.482616 9.37585 0.869551 10.224 1.52081 10.8452C2.17207 11.4664 3.0376 11.8129 3.93761 11.8126H5.25011C5.36615 11.8126 5.47742 11.7665 5.55947 11.6844C5.64152 11.6024 5.68761 11.4911 5.68761 11.3751C5.68761 11.2591 5.64152 11.1478 5.55947 11.0657C5.47742 10.9837 5.36615 10.9376 5.25011 10.9376H3.93761C3.59289 10.9386 3.25135 10.8717 2.93249 10.7407C2.61362 10.6097 2.32368 10.4172 2.07922 10.1742C1.5855 9.68331 1.30699 9.01644 1.30496 8.32025C1.30293 7.62405 1.57754 6.95557 2.06839 6.46185C2.55924 5.96813 3.22611 5.68962 3.9223 5.68759C4.03456 5.69604 4.14596 5.66249 4.23488 5.59346C4.3238 5.52442 4.38391 5.42481 4.40355 5.31396C4.49264 4.68924 4.80412 4.11763 5.28079 3.70411C5.75746 3.29059 6.36732 3.06292 6.99836 3.06292C7.6294 3.06292 8.23926 3.29059 8.71593 3.70411C9.19261 4.11763 9.50409 4.68924 9.59317 5.31396C9.61606 5.42096 9.67537 5.51671 9.76098 5.58485C9.84659 5.65299 9.9532 5.6893 10.0626 5.68759C10.7588 5.68759 11.4265 5.96415 11.9188 6.45643C12.411 6.94872 12.6876 7.6164 12.6876 8.31259C12.6876 9.00878 12.411 9.67646 11.9188 10.1687C11.4265 10.661 10.7588 10.9376 10.0626 10.9376H8.75011C8.63408 10.9376 8.5228 10.9837 8.44075 11.0657C8.3587 11.1478 8.31261 11.2591 8.31261 11.3751C8.31261 11.4911 8.3587 11.6024 8.44075 11.6844C8.5228 11.7665 8.63408 11.8126 8.75011 11.8126H10.0626C10.956 11.8032 11.8121 11.4526 12.4553 10.8324C13.0985 10.2123 13.4802 9.36961 13.5221 8.47711C13.5641 7.58462 13.2631 6.70988 12.6809 6.03213C12.0987 5.35438 11.2793 4.92495 10.3907 4.83184Z" fill="#F7F7F7"/>
<path d="M8.87817 8.62172C8.96068 8.70141 9.0712 8.74551 9.18591 8.74451C9.30062 8.74352 9.41035 8.69751 9.49146 8.61639C9.57258 8.53527 9.61859 8.42554 9.61959 8.31083C9.62058 8.19612 9.57649 8.08561 9.49679 8.00309L7.3093 5.81559C7.22726 5.73358 7.116 5.6875 6.99999 5.6875C6.88398 5.6875 6.77272 5.73358 6.69068 5.81559L4.50318 8.00309C4.42349 8.08561 4.37939 8.19612 4.38039 8.31083C4.38138 8.42554 4.4274 8.53527 4.50851 8.61639C4.58963 8.69751 4.69936 8.74352 4.81407 8.74451C4.92878 8.74551 5.03929 8.70141 5.12181 8.62172L6.56249 7.18103V12.6874C6.56249 12.8034 6.60858 12.9147 6.69063 12.9968C6.77268 13.0788 6.88396 13.1249 6.99999 13.1249C7.11602 13.1249 7.2273 13.0788 7.30935 12.9968C7.39139 12.9147 7.43749 12.8034 7.43749 12.6874V7.18103L8.87817 8.62172Z" fill="#F7F7F7"/>
</svg>
