<svg width="24" height="24" viewBox="0 0 24 24" fill="none" xmlns="http://www.w3.org/2000/svg">
<path d="M18.347 22.7904H5.65274C5.13505 22.7904 4.71533 22.3707 4.71533 21.853V4.21768C4.71533 3.69999 5.13505 3.28027 5.65274 3.28027H18.347C18.8646 3.28027 19.2844 3.69999 19.2844 4.21768V21.8529C19.2845 22.3707 18.8647 22.7904 18.347 22.7904Z" fill="#E63950"/>
<path d="M18.7328 3.36279C18.7861 3.48045 18.8157 3.61114 18.8157 3.74867V21.3839C18.8157 21.9016 18.396 22.3213 17.8783 22.3213H5.18397C5.04644 22.3213 4.91585 22.2917 4.7981 22.2384C4.94519 22.5636 5.27247 22.7901 5.65272 22.7901H18.3469C18.8646 22.7901 19.2843 22.3703 19.2843 21.8526V4.21742C19.2844 3.83726 19.0581 3.50989 18.7328 3.36279Z" fill="#D10028"/>
<path d="M17.7286 21.4834H6.27121C6.09861 21.4834 5.95874 21.3436 5.95874 21.171V4.9028C5.95874 4.73021 6.09861 4.59033 6.27121 4.59033H17.7286C17.9012 4.59033 18.041 4.73021 18.041 4.9028V21.171C18.041 21.3436 17.9012 21.4834 17.7286 21.4834Z" fill="#F1F2F2"/>
<path d="M17.7286 4.59033H17.5723V20.7022C17.5723 20.8748 17.4324 21.0147 17.2598 21.0147H5.95874V21.171C5.95874 21.3436 6.09861 21.4834 6.27121 21.4834H17.7286C17.9012 21.4834 18.041 21.3436 18.041 21.171V4.9028C18.041 4.73021 17.9012 4.59033 17.7286 4.59033Z" fill="#E6E7E8"/>
<path d="M6.52124 15.6941C6.41812 15.6941 6.33374 15.6097 6.33374 15.5066C6.33374 15.4035 6.41812 15.3191 6.52124 15.3191C6.62446 15.3191 6.70874 15.4035 6.70874 15.5066C6.70874 15.6097 6.62437 15.6941 6.52124 15.6941ZM6.52124 14.9441C6.41812 14.9441 6.33374 14.8597 6.33374 14.7566V5.15283C6.33374 5.10314 6.35343 5.05533 6.38905 5.02064C6.42374 4.98502 6.47258 4.96533 6.52124 4.96533H7.85812C7.96133 4.96533 8.04562 5.04971 8.04562 5.15283C8.04562 5.25596 7.96133 5.34033 7.85812 5.34033H6.70874V14.7556V14.7566C6.70874 14.8597 6.62437 14.9441 6.52124 14.9441Z" fill="white"/>
<path d="M15.6067 4.55755L15.1385 2.87802C15.0632 2.60784 14.817 2.4209 14.5365 2.4209H12.5858C12.5858 2.74443 12.3234 3.00674 11.9999 3.00674C11.6764 3.00674 11.4141 2.74443 11.4141 2.4209H9.46333C9.18283 2.4209 8.93664 2.60784 8.86136 2.87802L8.39317 4.55755C8.28217 4.9559 8.58171 5.35031 8.99524 5.35031H15.0048C15.4182 5.35031 15.7177 4.9559 15.6067 4.55755Z" fill="#FFA91A"/>
<path d="M15.6068 4.55755L15.1386 2.87802C15.0633 2.60784 14.8171 2.4209 14.5366 2.4209H14.3349L14.6693 3.62005C14.7804 4.0184 14.4808 4.4128 14.0673 4.4128H8.43349L8.39317 4.55755C8.28217 4.9559 8.58171 5.35031 8.99524 5.35031H15.0048C15.4183 5.35031 15.7178 4.9559 15.6068 4.55755Z" fill="#F79219"/>
<path d="M15.6067 4.55764L15.1385 2.87811C15.0762 2.65432 14.8967 2.48773 14.6775 2.43701L15.138 4.08889C15.2491 4.48723 14.9495 4.88164 14.536 4.88164H8.52637C8.47771 4.88164 8.43074 4.87611 8.38574 4.86589C8.44865 5.1372 8.69109 5.35039 8.99512 5.35039H15.0047C15.4183 5.35039 15.7177 4.95598 15.6067 4.55764Z" fill="#EF7816"/>
<path d="M11.4239 2.52824C11.4174 2.49346 11.4141 2.45765 11.4141 2.4209H11.1797C11.2505 2.47405 11.3335 2.51155 11.4239 2.52824Z" fill="#F79219"/>
<path d="M11.9999 1.20996C11.3311 1.20996 10.7891 1.75202 10.7891 2.42084C10.7891 3.08956 11.3311 3.63162 11.9999 3.63162C12.6686 3.63162 13.2107 3.08956 13.2107 2.42084C13.2107 1.75212 12.6686 1.20996 11.9999 1.20996ZM11.9999 3.00668C11.6763 3.00668 11.414 2.74437 11.414 2.42084C11.414 2.09731 11.6763 1.83499 11.9999 1.83499C12.3235 1.83499 12.5857 2.09731 12.5857 2.42084C12.5857 2.74437 12.3235 3.00668 11.9999 3.00668Z" fill="#FFA91A"/>
<path d="M12.7573 1.47607C12.9237 1.68345 13.0234 1.94679 13.0234 2.23339C13.0234 2.90211 12.4813 3.44417 11.8125 3.44417C11.5259 3.44417 11.2626 3.34461 11.0552 3.1782C11.2771 3.45467 11.6179 3.63167 12 3.63167C12.6687 3.63167 13.2109 3.08961 13.2109 2.42089C13.2109 2.03876 13.0338 1.69798 12.7573 1.47607Z" fill="#F79219"/>
<path d="M11.5027 2.73065C11.4465 2.64074 11.4141 2.53462 11.4141 2.4208C11.4141 2.09727 11.6764 1.83496 12 1.83496C12.1138 1.83496 12.2199 1.8674 12.3098 1.92355C12.2063 1.7578 12.0223 1.64746 11.8125 1.64746C11.489 1.64746 11.2266 1.90977 11.2266 2.2333C11.2266 2.44312 11.3369 2.62715 11.5027 2.73065Z" fill="#F79219"/>
<path d="M15.6549 8.94109H11.337C11.102 8.94109 10.9114 8.75059 10.9114 8.51547C10.9114 8.28044 11.1019 8.08984 11.337 8.08984H15.6548C15.8899 8.08984 16.0805 8.28034 16.0805 8.51547C16.0805 8.75059 15.89 8.94109 15.6549 8.94109Z" fill="#D1D3D4"/>
<path d="M16.9946 7.466H11.337C11.102 7.466 10.9114 7.2755 10.9114 7.04037C10.9114 6.80534 11.1019 6.61475 11.337 6.61475H16.9946C17.2297 6.61475 17.4203 6.80525 17.4203 7.04037C17.4203 7.2754 17.2297 7.466 16.9946 7.466Z" fill="#FFA91A"/>
<path d="M15.6549 12.8049H11.337C11.102 12.8049 10.9114 12.6144 10.9114 12.3792C10.9114 12.1442 11.1019 11.9536 11.337 11.9536H15.6548C15.8899 11.9536 16.0805 12.1441 16.0805 12.3792C16.0805 12.6144 15.89 12.8049 15.6549 12.8049Z" fill="#D1D3D4"/>
<path d="M16.9946 11.3303H11.337C11.102 11.3303 10.9114 11.1398 10.9114 10.9046C10.9114 10.6696 11.1019 10.479 11.337 10.479H16.9946C17.2297 10.479 17.4203 10.6695 17.4203 10.9046C17.4203 11.1397 17.2297 11.3303 16.9946 11.3303Z" fill="#FFA91A"/>
<path d="M15.6549 16.6691H11.337C11.102 16.6691 10.9114 16.4786 10.9114 16.2435C10.9114 16.0085 11.1019 15.8179 11.337 15.8179H15.6548C15.8899 15.8179 16.0805 16.0084 16.0805 16.2435C16.0805 16.4786 15.89 16.6691 15.6549 16.6691Z" fill="#D1D3D4"/>
<path d="M16.9946 15.1945H11.337C11.102 15.1945 10.9114 15.004 10.9114 14.7689C10.9114 14.5339 11.1019 14.3433 11.337 14.3433H16.9946C17.2297 14.3433 17.4203 14.5338 17.4203 14.7689C17.4203 15.0039 17.2297 15.1945 16.9946 15.1945Z" fill="#FFA91A"/>
<path d="M15.6549 20.5334H11.337C11.102 20.5334 10.9114 20.3429 10.9114 20.1078C10.9114 19.8727 11.1019 19.6821 11.337 19.6821H15.6548C15.8899 19.6821 16.0805 19.8726 16.0805 20.1078C16.0805 20.3429 15.89 20.5334 15.6549 20.5334Z" fill="#D1D3D4"/>
<path d="M16.9946 19.0583H11.337C11.102 19.0583 10.9114 18.8678 10.9114 18.6327C10.9114 18.3976 11.1019 18.207 11.337 18.207H16.9946C17.2297 18.207 17.4203 18.3975 17.4203 18.6327C17.4203 18.8678 17.2297 19.0583 16.9946 19.0583Z" fill="#FFA91A"/>
<path d="M9.45015 8.94078H7.87402C7.66693 8.94078 7.49902 8.77287 7.49902 8.56578V6.98975C7.49902 6.78265 7.66693 6.61475 7.87402 6.61475H9.45015C9.65724 6.61475 9.82515 6.78265 9.82515 6.98975V8.56587C9.82515 8.77296 9.65724 8.94078 9.45015 8.94078Z" fill="#FFA91A"/>
<path d="M8.51894 8.36331C8.45969 8.36331 8.40269 8.33968 8.36078 8.29777L7.92344 7.86043C7.83607 7.77315 7.83607 7.63149 7.92344 7.54411C8.01082 7.45674 8.15238 7.45674 8.23975 7.54411L8.51894 7.82321L9.08463 7.25743C9.172 7.17005 9.31356 7.17005 9.40094 7.25743C9.48831 7.34471 9.48831 7.48636 9.40094 7.57374L8.6771 8.29777C8.63519 8.33977 8.57838 8.36331 8.51894 8.36331Z" fill="#F1F2F2"/>
<path d="M9.45015 12.8051H7.87402C7.66693 12.8051 7.49902 12.6372 7.49902 12.4301V10.854C7.49902 10.6469 7.66693 10.479 7.87402 10.479H9.45015C9.65724 10.479 9.82515 10.6469 9.82515 10.854V12.4301C9.82515 12.6372 9.65724 12.8051 9.45015 12.8051Z" fill="#FFA91A"/>
<path d="M8.51894 12.2281C8.45969 12.2281 8.40269 12.2044 8.36078 12.1625L7.92344 11.7252C7.83607 11.6379 7.83607 11.4962 7.92344 11.4089C8.01082 11.3215 8.15238 11.3215 8.23975 11.4089L8.51894 11.688L9.08463 11.1222C9.172 11.0348 9.31356 11.0348 9.40094 11.1222C9.48831 11.2095 9.48831 11.3511 9.40094 11.4385L8.6771 12.1625C8.63519 12.2045 8.57838 12.2281 8.51894 12.2281Z" fill="#F1F2F2"/>
<path d="M9.45015 16.6694H7.87402C7.66693 16.6694 7.49902 16.5015 7.49902 16.2944V14.7183C7.49902 14.5112 7.66693 14.3433 7.87402 14.3433H9.45015C9.65724 14.3433 9.82515 14.5112 9.82515 14.7183V16.2944C9.82515 16.5015 9.65724 16.6694 9.45015 16.6694Z" fill="#FFA91A"/>
<path d="M8.51894 16.0923C8.45969 16.0923 8.40269 16.0687 8.36078 16.0268L7.92344 15.5894C7.83607 15.5021 7.83607 15.3605 7.92344 15.2731C8.01082 15.1857 8.15238 15.1857 8.23975 15.2731L8.51894 15.5522L9.08463 14.9864C9.172 14.8991 9.31356 14.8991 9.40094 14.9864C9.48831 15.0737 9.48831 15.2154 9.40094 15.3027L8.6771 16.0268C8.63519 16.0687 8.57838 16.0923 8.51894 16.0923Z" fill="#F1F2F2"/>
<path d="M9.45015 20.5336H7.87402C7.66693 20.5336 7.49902 20.3657 7.49902 20.1586V18.5825C7.49902 18.3754 7.66693 18.2075 7.87402 18.2075H9.45015C9.65724 18.2075 9.82515 18.3754 9.82515 18.5825V20.1586C9.82515 20.3657 9.65724 20.5336 9.45015 20.5336Z" fill="#FFA91A"/>
<path d="M8.51894 19.9566C8.45969 19.9566 8.40269 19.9329 8.36078 19.891L7.92344 19.4537C7.83607 19.3664 7.83607 19.2247 7.92344 19.1374C8.01082 19.05 8.15238 19.05 8.23975 19.1374L8.51894 19.4165L9.08463 18.8507C9.172 18.7633 9.31356 18.7633 9.40094 18.8507C9.48831 18.938 9.48831 19.0796 9.40094 19.167L8.6771 19.891C8.63519 19.9329 8.57838 19.9566 8.51894 19.9566Z" fill="#F1F2F2"/>
</svg>
